M48
;Layer_Color=9474304
;FILE_FORMAT=4:4
METRIC,LZ
;TYPE=PLATED
T01F00S00C0.3000
T02F00S00C0.7620
T03F00S00C0.9000
T04F00S00C1.0000
T05F00S00C3.2000
;TYPE=NON_PLATED
T06F00S00C1.0000
T07F00S00C1.1000
%
T01
X00586Y00150524
X00590415Y00158074
X00650668Y00166079
Y00177572
X006582Y00153224
X00657445Y00252315
Y00394798
X0052165Y002856
X005086Y002942
X004556Y00178032
Y00164074
X00393345Y00164639
X003776Y001634
X003806Y001752
X00368773Y0018425
X003746Y00150389
X00314385Y00194798
X00325409Y00228215
X0030566Y00255059
X00300229Y00289927
X00273378Y00281735
X00229232Y002656
X00237594Y00255097
X0021518Y00233129
X00214594Y00201417
X00226544Y00199639
X0023687
X00247779Y00174639
X0039922Y003754
X004126Y003904
X004316Y0044
T02
X00312709Y00516
T03
X00196594Y00055
X00221594
X00246594
X00271594
X00296594
X00321594
X004046
X004296
X004546
X004796
X005666Y0005405
X005916
X006166
X0079015Y00116622
Y00141622
Y00166621
X00789834Y00224077
Y00249077
Y00274077
Y0033135
Y0035635
Y0038135
X0052865Y0037815
X0050365
X0047865
X0045365
X0042865
T04
X0046615Y00505801
X0049115
X0005765Y004447
Y004197
T05
X000432Y000444
X008218
Y005118
X00043152Y00511536
T06
X0014537Y00205715
Y00285715
T07
X00180594Y00035
X0054465Y0039815
M30
