M48
;Layer_Color=9474304
;FILE_FORMAT=4:4
METRIC,LZ
;TYPE=PLATED
T01F00S00C0.3000
T02F00S00C0.7620
T03F00S00C0.9000
T04F00S00C1.0000
T05F00S00C3.2000
;TYPE=NON_PLATED
T06F00S00C1.0000
T07F00S00C1.1000
%
T01
X00046Y00016
X00076
X00106
X00136
X00121Y00046
X00091
X00106Y00076
X00136
X00121Y00106
X00091
X00061
X00031
X00046Y00136
X00076
X00106
X00136
X00076Y00076
X00046
X00016
Y00136
X00166
X00196
X00181Y00106
X00151
X00166Y00076
X00181Y00046
X00211
X00226Y00076
X00256
X00286
X00316
X00346
X00376
X00391Y00106
X00421
X00451
X00481
X00511
X00526Y00076
X00496
X00466
Y00016
X00496
X00526
X00436
X00406
X00376
X00346
X00316
X00286
X00256
X00226
X00196
X00166
X00151Y00046
X00331
X00361
X00391
X00421
X00436Y00136
X00406
X00376
X00346
X00361Y00106
X00331
X00271
X00286Y00136
X00541Y00106
X00556Y00076
X00586
X00616
X00601Y00106
X00691
X00721
X00751
X00781
X00811
X00841
X00826Y00136
X00796
X00766
X00736
Y00076
X00766
X00796
X00826
Y00016
X00796
X00766
X00736
X00706
X00676
X00646
X00616
X00586
X00556
X00691Y00046
X00721
X00751
X00781
X00706Y00076
X00676
Y00136
X006582Y00153224
X00650668Y00166079
X00631Y00204845
X00593415
X00556Y00196
X00558526Y002556
X00586Y00256
X00601Y00286
X00631
X00646Y00316
X00676
X00706
X00736
X00766
X00796
X00826
X00841Y00346
X00811
X00826Y00376
X00841Y00406
X00811
X00781
X00751
X00721
X00736Y00436
X00766
X00796
X00826
X00841Y00466
X00811
X00781
X00751
X00721
X00691
X00661
X00631
X00601
X00571
X00541
X00556Y00496
X00586
X00616
X00646
X00676
X00706
X00736
X00766
X00796
X00781Y00526
X00751
X00721
X00691
X00661
X00631
X00601
X00571
X00541
X00556Y00436
X00616
X00646
X00676
X00706
X00661Y00406
X00657445Y00394798
X00676Y00376
X00736
X00766
X00781Y00286
X00811
X00841
X00826Y00256
X00841Y00226
X00811
X00781
X00751
X00766Y00256
X00751Y00286
X00691
Y00226
X00706Y00196
X00736
X00766
X00796
X00826
X00841Y00166
X00811
X00781
X00751
X00590415Y00158074
X00586Y00150524
Y00316
X00541708Y00316
X00541Y00286
X00601Y00346
Y00406
X00631
X00657445Y00252315
X00526Y00256
X0052165Y002856
X00511Y00286
X005086Y002942
X00496Y00316
X00466
X00436
X00406
X00376
X00346
X00361Y00346
X00391
X0039922Y003754
X00376Y00376
X00391Y00406
X00421
X004126Y003904
X00451Y00406
X00466Y00376
X00481Y00346
X00451
X00449075Y002826
Y00273053
X00448971Y00264152
Y00254605
X00448745Y00245618
Y00236071
X00459849
Y00245618
X00460075Y00254605
Y00264152
X00460179Y00273053
Y002826
X00471283
Y00273053
X00471179Y00264152
Y00254605
X00470953Y00245618
Y00236071
X00483074Y0021822
X00511432
X00526Y00196
X00496
X0043764Y00236071
Y00245618
X00437867Y00254605
Y00264152
X00437971Y00273053
Y002826
X00426867
Y00273053
X00426763Y00264152
Y00254605
X00426536Y00245618
Y00236071
X00415432
Y00245618
X00415659Y00254605
Y00264152
X00415763Y00273053
Y002826
X00361Y00286
X00316Y00256
X00286
X00256
X00241Y00226
X00211
X00181
X00151
X00166Y00196
X00196
X00226
X00314385Y00194798
X00371859Y00185639
X003806Y001752
X003776Y001634
X003746Y00150389
X00393345Y00164639
X00398225Y00206845
X00387121
X00331Y00346
X00301
X00271
X00256Y00316
X00211Y00346
X00181
X00196Y00376
X00226
X00241Y00406
X00271
Y00466
X00236104Y00464152
Y00455565
Y00446018
X00236Y00437117
X00224896
X00225Y00446018
Y00455565
Y00464152
X00225104Y00473053
Y004826
X00236208
Y00473053
X00214
X00205608
X00205504Y00464152
X00213896
Y00455565
X00205504Y0045542
Y00445873
X00213896Y00446018
X00213792Y00437117
X002054Y00436972
X00194296
X001944Y00445873
Y0045542
Y00464152
X00194504Y00473053
Y004826
X00205608
X00214
X00226Y00496
X00196
X001834Y004826
Y00473053
X00183296Y00464152
Y0045542
Y00445873
X00183192Y00436972
X00181Y00406
X00211
X00151
X00166Y00376
Y00316
Y00292435
X00211Y00286
X00376Y00436
X00391Y00466
X00421
X004316Y0044
X00436Y00496
X00406
X00376
X00481Y00526
X00511
Y00466
X00526Y00436
X00136
X00106
X00076
X00091Y00406
X00121
X00136Y00376
X00106
X00076
X00046
X00016
X00031Y00406
X00061
Y00346
X00091
X00121
X00135Y003252
X001358Y003006
X00135842Y00292435
X001326Y002812
X00129368Y00258784
X001358Y002474
X00091Y00226
X00061
X00031
X00046Y00256
X00076
X00091Y00286
X00061
X00031
X00016Y00316
X00031Y00346
X00076Y00316
Y00196
X00046
X00016
X00031Y00166
X00061
X00091
X00016Y00256
Y00436
X00031Y00466
X00016Y00496
X00076
X00091Y00526
X00121
T02
X00312709Y00516
T03
X00196594Y00055
X00221594
X00246594
X00271594
X00296594
X00321594
X004046
X004296
X004546
X004796
X005666Y0005405
X005916
X006166
X00789834Y0033135
Y0035635
Y0038135
X0052865Y0037815
X0050365
X0047865
X0045365
X0042865
T04
X00789834Y00153224
Y00178224
Y00243824
Y00268824
X0049115Y00505801
X0046615
X0005765Y004447
Y004197
T05
X000432Y000444
X008218
Y005118
X00043152Y00511536
T06
X00041989Y00229435
Y00309435
T07
X00180594Y00035
X0054465Y0039815
M30
