%TF.GenerationSoftware,Altium Limited,Altium Designer,25.6.2 (33)*%
G04 Layer_Color=16711935*
%FSLAX45Y45*%
%MOMM*%
%TF.SameCoordinates,68E199BB-630F-42D4-9956-741831051F46*%
%TF.FilePolarity,Negative*%
%TF.FileFunction,Soldermask,Bot*%
%TF.Part,Single*%
G01*
G75*
%TA.AperFunction,ComponentPad*%
%ADD46C,1.10000*%
%ADD47C,1.40000*%
%ADD48R,1.40000X1.40000*%
%ADD49R,1.55000X1.55000*%
%ADD50C,1.55000*%
%ADD51R,1.55000X1.55000*%
%ADD52R,1.40000X1.40000*%
%TA.AperFunction,ViaPad*%
%ADD69C,4.70320*%
%TA.AperFunction,ComponentPad*%
%ADD70C,0.70320*%
D46*
X1805938Y350000D02*
D03*
X5446500Y3981500D02*
D03*
D47*
X3215938Y550000D02*
D03*
X2965938D02*
D03*
X2715938D02*
D03*
X2465938D02*
D03*
X2215938D02*
D03*
X4546000D02*
D03*
X6166000Y540500D02*
D03*
X5916000D02*
D03*
X4796000Y550000D02*
D03*
X4296000D02*
D03*
X7898344Y3813500D02*
D03*
Y3563500D02*
D03*
X5036500Y3781500D02*
D03*
X4786500D02*
D03*
X4536500D02*
D03*
X4286500D02*
D03*
D48*
X1965938Y550000D02*
D03*
X5666000Y540500D02*
D03*
X5286500Y3781500D02*
D03*
X4046000Y550000D02*
D03*
D49*
X576500Y4447000D02*
D03*
X7898344Y1532236D02*
D03*
Y2438237D02*
D03*
D50*
X576500Y4197000D02*
D03*
X4661500Y5058012D02*
D03*
X7898344Y1782236D02*
D03*
Y2688237D02*
D03*
D51*
X4911500Y5058012D02*
D03*
D52*
X7898344Y3313500D02*
D03*
D69*
X8218000Y444000D02*
D03*
Y5118000D02*
D03*
X431521Y5115359D02*
D03*
X432000Y444000D02*
D03*
D70*
X419892Y2294347D02*
D03*
Y3094347D02*
D03*
%TF.MD5,7ced916904e72c9c019287e163a2e9f7*%
M02*
