%TF.GenerationSoftware,Altium Limited,Altium Designer,25.6.2 (33)*%
G04 Layer_Physical_Order=1*
G04 Layer_Color=255*
%FSLAX45Y45*%
%MOMM*%
%TF.SameCoordinates,8AE9E5EF-2348-4DBE-AA87-B46EC27F1771*%
%TF.FilePolarity,Positive*%
%TF.FileFunction,Copper,L1,Top,Signal*%
%TF.Part,Single*%
G01*
G75*
%TA.AperFunction,SMDPad,CuDef*%
%ADD10R,1.05000X0.50000*%
%ADD11R,0.75814X0.81213*%
%ADD12R,1.52500X0.65000*%
%ADD13R,5.08000X1.27000*%
%ADD14R,5.00000X9.00000*%
%ADD15R,0.90000X0.80000*%
%ADD16R,1.40000X0.95000*%
%ADD17R,1.35000X0.95000*%
%ADD18R,1.10000X1.25000*%
%ADD19R,0.85000X0.75000*%
%ADD20R,0.60000X1.30000*%
%ADD21R,6.20000X5.80000*%
%ADD22R,1.55000X1.00000*%
%ADD23R,1.35490X1.85822*%
%ADD24R,0.81213X0.75814*%
%ADD25R,1.47500X0.30000*%
%ADD26R,1.60000X1.50000*%
%ADD27R,0.95000X1.40000*%
%ADD28R,0.95000X1.35000*%
%ADD29R,1.10000X1.90000*%
%ADD30R,0.30000X1.47500*%
%ADD31R,0.60000X1.40000*%
%ADD32R,0.50000X1.10000*%
%ADD33C,1.50876*%
%ADD34R,3.00000X1.60000*%
%ADD35R,1.60981X0.95606*%
%ADD36R,0.99060X0.40640*%
%TA.AperFunction,Conductor*%
%ADD37C,0.50000*%
%ADD38C,0.20000*%
%ADD39C,1.00000*%
%TA.AperFunction,ComponentPad*%
%ADD40C,1.40000*%
%ADD41R,1.40000X1.40000*%
%TA.AperFunction,ViaPad*%
%ADD42C,0.60000*%
%TA.AperFunction,ComponentPad*%
%ADD43C,1.55000*%
%ADD44R,1.40000X1.40000*%
%ADD45C,0.50000*%
%TA.AperFunction,ViaPad*%
%ADD46C,4.50000*%
%ADD47C,1.00000*%
%TA.AperFunction,ComponentPad*%
%ADD48C,1.10000*%
%ADD49R,1.55000X1.55000*%
%ADD50R,1.55000X1.55000*%
G36*
X8131746Y5528808D02*
X8193832Y5513903D01*
X8252823Y5489468D01*
X8307265Y5456106D01*
X8355817Y5414638D01*
X8397285Y5366085D01*
X8430647Y5311643D01*
X8455082Y5252653D01*
X8463386Y5218063D01*
X8444306Y5211864D01*
X8435116Y5234051D01*
X8408304Y5274178D01*
X8374179Y5308304D01*
X8334051Y5335116D01*
X8289464Y5353585D01*
X8242131Y5363000D01*
X8193870D01*
X8146536Y5353585D01*
X8101949Y5335116D01*
X8061822Y5308304D01*
X8027696Y5274178D01*
X8000884Y5234051D01*
X7982415Y5189464D01*
X7973000Y5142130D01*
Y5093869D01*
X7982415Y5046536D01*
X8000884Y5001949D01*
X8027696Y4961821D01*
X8061822Y4927696D01*
X8101949Y4900884D01*
X8146536Y4882415D01*
X8193870Y4873000D01*
X8242131D01*
X8289464Y4882415D01*
X8334051Y4900884D01*
X8374179Y4927696D01*
X8408304Y4961821D01*
X8435116Y5001949D01*
X8453585Y5046536D01*
X8454408Y5050674D01*
X8474409Y5048708D01*
X8476508Y502738D01*
X8456509Y500764D01*
X8453585Y515464D01*
X8435116Y560051D01*
X8408304Y600178D01*
X8374179Y634304D01*
X8334051Y661116D01*
X8289464Y679585D01*
X8242131Y689000D01*
X8193870D01*
X8146536Y679585D01*
X8101949Y661116D01*
X8061822Y634304D01*
X8027696Y600178D01*
X8000884Y560051D01*
X7982415Y515464D01*
X7973000Y468130D01*
Y419869D01*
X7982415Y372536D01*
X8000884Y327949D01*
X8027696Y287821D01*
X8061822Y253696D01*
X8101949Y226884D01*
X8146536Y208415D01*
X8193870Y199000D01*
X8242131D01*
X8289464Y208415D01*
X8334051Y226884D01*
X8374179Y253696D01*
X8408304Y287821D01*
X8435116Y327949D01*
X8452614Y370193D01*
X8471694Y363993D01*
X8457721Y305791D01*
X8433901Y248284D01*
X8401378Y195211D01*
X8360953Y147879D01*
X8313621Y107454D01*
X8260548Y74931D01*
X8203040Y51111D01*
X8142515Y36580D01*
X8082603Y31865D01*
X8080471Y32289D01*
X433265Y34457D01*
X413267Y34463D01*
X393678Y35455D01*
X353440Y38622D01*
X295087Y52631D01*
X239644Y75596D01*
X188476Y106952D01*
X142843Y145926D01*
X103869Y191559D01*
X72513Y242727D01*
X49548Y298171D01*
X35538Y356524D01*
X30986Y414370D01*
X31379Y416348D01*
X31645Y5098404D01*
X31646Y5118405D01*
X32669Y5137980D01*
X34937Y5172579D01*
X45529Y5225826D01*
X62980Y5277236D01*
X86992Y5325928D01*
X117155Y5371069D01*
X152951Y5411887D01*
X193769Y5447683D01*
X238910Y5477846D01*
X287602Y5501858D01*
X339012Y5519309D01*
X392259Y5529901D01*
X445453Y5533387D01*
X446433Y5533192D01*
X8068092Y5533193D01*
X8070342Y5533641D01*
X8131746Y5528808D01*
D02*
G37*
%LPC*%
G36*
X4417512Y5372604D02*
X1431500D01*
X1413227Y5370198D01*
X1396198Y5363145D01*
X1381576Y5351925D01*
X967654Y4938003D01*
X892111D01*
X884307Y4936451D01*
X877692Y4932030D01*
X877691Y4932030D01*
X490161Y4544500D01*
X479000D01*
Y4526470D01*
X478608Y4524500D01*
Y4369500D01*
X479000Y4367530D01*
Y4349500D01*
X497030D01*
X499000Y4349108D01*
X653999D01*
X654000Y4349108D01*
X655971Y4349500D01*
X674000D01*
Y4360662D01*
X971798Y4658459D01*
X1532835D01*
X1540638Y4660011D01*
X1547254Y4664432D01*
X1547254Y4664432D01*
X1554874Y4672052D01*
X1559294Y4678667D01*
X1560847Y4686471D01*
Y4917611D01*
X1559294Y4925415D01*
X1554874Y4932030D01*
X1548258Y4936451D01*
X1540455Y4938003D01*
X1193483D01*
X1185829Y4956481D01*
X1460745Y5231396D01*
X3072620D01*
X3073223Y5230589D01*
X3079490Y5211396D01*
X3071075Y5202981D01*
X3061859Y5187019D01*
X3057089Y5169216D01*
Y5150784D01*
X3061859Y5132981D01*
X3064141Y5129028D01*
X3052594Y5109028D01*
X2837000D01*
Y5153146D01*
X2702000D01*
Y4973147D01*
X2723619D01*
Y4912878D01*
X2637000D01*
Y4712879D01*
X2977000D01*
Y4912878D01*
X2815382D01*
Y4973147D01*
X2837000D01*
Y5017265D01*
X3423089D01*
Y4973147D01*
X3437207D01*
Y4943287D01*
X3428089D01*
Y4763288D01*
X3528088D01*
Y4853855D01*
X3528970Y4858287D01*
Y4973147D01*
X3558089D01*
Y5153146D01*
X3423089D01*
Y5109028D01*
X3201583D01*
X3190036Y5129028D01*
X3192318Y5132981D01*
X3197088Y5150784D01*
Y5169216D01*
X3192318Y5187019D01*
X3183102Y5202981D01*
X3174687Y5211396D01*
X3180954Y5230589D01*
X3181557Y5231396D01*
X4211381D01*
Y5084657D01*
X4212262Y5080225D01*
Y5009657D01*
X4302262D01*
Y5080225D01*
X4303144Y5084657D01*
Y5231396D01*
X4388267D01*
X4564000Y5055663D01*
Y5045176D01*
X4570645Y5020379D01*
X4583481Y4998146D01*
X4601634Y4979993D01*
X4623866Y4967157D01*
X4648664Y4960512D01*
X4674336D01*
X4699134Y4967157D01*
X4721366Y4979993D01*
X4739519Y4998146D01*
X4752355Y5020379D01*
X4759000Y5045176D01*
Y5070848D01*
X4752355Y5095646D01*
X4739519Y5117879D01*
X4721366Y5136032D01*
X4699134Y5148868D01*
X4674336Y5155512D01*
X4663849D01*
X4467437Y5351925D01*
X4452814Y5363145D01*
X4435786Y5370198D01*
X4417512Y5372604D01*
D02*
G37*
G36*
X1713674Y5146186D02*
X1483759D01*
X1481787Y5145794D01*
X1463759D01*
Y5127766D01*
X1463367Y5125794D01*
Y5044581D01*
X1463759Y5042609D01*
Y5024581D01*
X1481787D01*
X1483759Y5024189D01*
X1663626D01*
X1682623Y5005192D01*
Y4942452D01*
X1657105D01*
X1653485Y4943172D01*
X1635926Y4939680D01*
X1633416Y4938003D01*
X1603955D01*
X1601984Y4937611D01*
X1583955D01*
Y4919581D01*
X1583563Y4917611D01*
Y4876971D01*
X1583955Y4875001D01*
Y4853541D01*
X1583563Y4851571D01*
Y4594059D01*
X1545154Y4555651D01*
X1545153Y4555650D01*
X1540733Y4549034D01*
X1539181Y4541231D01*
Y4366231D01*
X1539573Y4364261D01*
Y4346231D01*
X1557602D01*
X1559573Y4345839D01*
X1561191D01*
Y4275787D01*
X1564684Y4258229D01*
X1574630Y4243344D01*
X1634417Y4183557D01*
X1649302Y4173611D01*
X1666860Y4170118D01*
X2477122D01*
X2494680Y4173611D01*
X2509565Y4183557D01*
X2617000Y4290992D01*
X2637000Y4282707D01*
Y4255879D01*
X2964838D01*
Y4053577D01*
X2968330Y4036019D01*
X2978276Y4021134D01*
X3007565Y3991844D01*
X3022450Y3981898D01*
X3040009Y3978406D01*
X3063409D01*
Y3911376D01*
X3238899D01*
Y3979514D01*
X3327482D01*
Y3964789D01*
X3432881D01*
X3443296Y3964789D01*
X3463296Y3964789D01*
X3568695D01*
Y4086002D01*
X3556670D01*
Y4117331D01*
X3587783D01*
X3650118Y4054995D01*
Y3923005D01*
X3576995Y3849882D01*
X2654000D01*
X2636442Y3846389D01*
X2621557Y3836443D01*
X2571286Y3786173D01*
X2552808Y3793826D01*
Y3835568D01*
X2422809D01*
Y3821450D01*
X1458292D01*
X1440733Y3817957D01*
X1425849Y3808011D01*
X1261557Y3643720D01*
X1251611Y3628835D01*
X1248118Y3611276D01*
Y1580000D01*
X1251611Y1562442D01*
X1261557Y1547557D01*
X1319452Y1489662D01*
X1334337Y1479716D01*
X1351895Y1476223D01*
X1514000D01*
Y1438605D01*
X2062000D01*
Y1605605D01*
X1514000D01*
Y1567986D01*
X1370900D01*
X1339881Y1599005D01*
Y3592272D01*
X1477297Y3729687D01*
X1514000D01*
Y3635605D01*
X2062000D01*
Y3729687D01*
X2422809D01*
Y3715568D01*
X2538619D01*
Y3645568D01*
X2422809D01*
Y3525568D01*
X2538619D01*
Y2846636D01*
X2542111Y2829078D01*
X2552057Y2814193D01*
X2581347Y2784904D01*
X2596232Y2774958D01*
X2613790Y2771465D01*
X2713894D01*
X2723837Y2767347D01*
X2743729D01*
X2753435Y2771368D01*
X3029589D01*
Y2749652D01*
X3204589D01*
Y2786759D01*
X3234223D01*
Y2748500D01*
X3409223D01*
Y2750401D01*
X3427701Y2758055D01*
X3566384Y2619372D01*
X3566385Y2619371D01*
X3616384Y2569372D01*
X3616385Y2569371D01*
X3626308Y2562741D01*
X3638014Y2560412D01*
X3898450D01*
Y2556000D01*
X4085950D01*
Y2656000D01*
Y2756000D01*
Y2876000D01*
X3898450D01*
Y2821588D01*
X3837184D01*
X3564011Y3094761D01*
Y3137405D01*
X3589223D01*
Y3194527D01*
X3643591D01*
Y3120115D01*
X3793590D01*
Y3285115D01*
X3643591D01*
Y3255703D01*
X3589223D01*
Y3367404D01*
X3439223D01*
X3439223Y3152624D01*
Y3151995D01*
Y3151994D01*
X3439223Y3148947D01*
X3434021Y3146792D01*
X3419224Y3140662D01*
X3359137Y3200749D01*
X3349213Y3207380D01*
X3339223Y3209367D01*
Y3367404D01*
X3189223D01*
Y3289273D01*
X3170945Y3285115D01*
Y3285115D01*
X3020946D01*
Y3120115D01*
X3170946D01*
Y3133247D01*
X3189224Y3137405D01*
Y3137405D01*
X3335965D01*
X3733305Y2740065D01*
X3725652Y2721588D01*
X3651764D01*
X3385563Y2987789D01*
X3375640Y2994419D01*
X3363934Y2996748D01*
X3363933Y2996747D01*
X2848722D01*
Y3033660D01*
X2673396D01*
Y3620568D01*
X2752809D01*
Y3740568D01*
X2752809D01*
X2758722Y3758118D01*
X3596000D01*
X3613558Y3761611D01*
X3628443Y3771557D01*
X3728443Y3871557D01*
X3738389Y3886442D01*
X3741882Y3904000D01*
Y4074000D01*
X3738389Y4091558D01*
X3734532Y4097331D01*
X3745222Y4117331D01*
X4823889D01*
X4990618Y3950601D01*
Y3858933D01*
X4981239Y3853518D01*
X4964482Y3836761D01*
X4952633Y3816238D01*
X4946500Y3793349D01*
Y3769651D01*
X4952633Y3746761D01*
X4964482Y3726239D01*
X4981239Y3709482D01*
X5001761Y3697633D01*
X5024651Y3691500D01*
X5048349D01*
X5071239Y3697633D01*
X5091761Y3709482D01*
X5108518Y3726239D01*
X5120366Y3746761D01*
X5126500Y3769651D01*
Y3793349D01*
X5120366Y3816238D01*
X5108518Y3836761D01*
X5091761Y3853518D01*
X5082382Y3858933D01*
Y3969606D01*
X5078889Y3987164D01*
X5068943Y4002049D01*
X4972139Y4098853D01*
X4979793Y4117331D01*
X6340209D01*
X6527939Y3929601D01*
X6532057Y3919658D01*
X6546123Y3905593D01*
X6564500Y3897981D01*
X6584391D01*
X6602768Y3905593D01*
X6616833Y3919658D01*
X6624445Y3938035D01*
Y3957927D01*
X6616833Y3976304D01*
X6602768Y3990369D01*
X6592825Y3994487D01*
X6488460Y4098853D01*
X6496113Y4117331D01*
X6849122D01*
X7060351Y3906101D01*
Y3802294D01*
X7057938Y3799882D01*
X7003089D01*
Y3806001D01*
X6810589D01*
Y3701001D01*
X7003089D01*
Y3708119D01*
X7076943D01*
X7094501Y3711611D01*
X7109386Y3721557D01*
X7138676Y3750846D01*
X7148621Y3765731D01*
X7152114Y3783290D01*
Y3925106D01*
X7148621Y3942664D01*
X7138676Y3957549D01*
X6900570Y4195655D01*
X6885685Y4205601D01*
X6868126Y4209094D01*
X3399383D01*
X3396970Y4211506D01*
Y4233288D01*
X3401088D01*
Y4413287D01*
X3396970D01*
Y4632119D01*
X3623589D01*
Y4613287D01*
X3803589D01*
Y4748287D01*
X3623589D01*
Y4723882D01*
X3396970D01*
Y4763288D01*
X3401088D01*
Y4943287D01*
X3301089D01*
Y4763288D01*
X3305207D01*
Y4723882D01*
X3269970D01*
Y4763288D01*
X3274088D01*
Y4943287D01*
X3174089D01*
Y4763288D01*
X3178207D01*
Y4678000D01*
Y4413287D01*
X3174089D01*
Y4233288D01*
X3274088D01*
Y4413287D01*
X3269970D01*
Y4632119D01*
X3305207D01*
Y4413287D01*
X3301089D01*
Y4233288D01*
X3305207D01*
Y4192502D01*
X3308700Y4174943D01*
X3318645Y4160058D01*
X3347935Y4130769D01*
X3362820Y4120823D01*
X3380378Y4117331D01*
X3462494D01*
X3462708Y4117117D01*
Y4095828D01*
X3452881Y4086002D01*
X3432881Y4086002D01*
X3327482D01*
Y4071277D01*
X3238899D01*
Y4137198D01*
X3063409D01*
X3056601Y4154378D01*
Y4233288D01*
X3147088D01*
Y4413287D01*
X3056601D01*
Y4575413D01*
X3129532Y4648344D01*
X3139478Y4663229D01*
X3142970Y4680787D01*
Y4763288D01*
X3147088D01*
Y4943287D01*
X3047089D01*
Y4763288D01*
X3051207D01*
Y4699792D01*
X2978276Y4626861D01*
X2968330Y4611976D01*
X2964838Y4594418D01*
Y4455878D01*
X2637000D01*
Y4396049D01*
X2611290D01*
X2593731Y4392557D01*
X2578847Y4382611D01*
X2458117Y4261881D01*
X1685865D01*
X1652954Y4294792D01*
Y4345839D01*
X1672073D01*
X1674043Y4346231D01*
X1674573D01*
Y4346336D01*
X1679876Y4347391D01*
X1686492Y4351812D01*
X1690912Y4358427D01*
X1692464Y4366231D01*
Y4510284D01*
X1757419Y4575239D01*
X1761840Y4581855D01*
X1763392Y4589658D01*
Y4831252D01*
X1763392Y4831254D01*
X1761840Y4839057D01*
X1759819Y4850882D01*
X1765197Y4862552D01*
X1802419Y4899775D01*
X1806840Y4906390D01*
X1808392Y4914194D01*
Y5051469D01*
X1806840Y5059273D01*
X1802419Y5065888D01*
X1728094Y5140214D01*
X1721478Y5144634D01*
X1713674Y5146186D01*
D02*
G37*
G36*
X5009000Y5155512D02*
X4814000D01*
Y4960512D01*
X4867396D01*
Y4895539D01*
X4302262D01*
Y4924657D01*
X4212262D01*
Y4854089D01*
X4211381Y4849657D01*
X4212262Y4845225D01*
Y4774657D01*
X4302262D01*
Y4803776D01*
X4792783D01*
X4800437Y4785298D01*
X4788076Y4772937D01*
X4776855Y4758314D01*
X4769802Y4741286D01*
X4767396Y4723012D01*
Y4613000D01*
X4769802Y4594727D01*
X4776855Y4577698D01*
X4788000Y4563174D01*
Y4528000D01*
X4888000D01*
Y4563174D01*
X4899145Y4577698D01*
X4906198Y4594727D01*
X4908604Y4613000D01*
Y4693767D01*
X4987924Y4773088D01*
X4999145Y4787710D01*
X5006198Y4804739D01*
X5008604Y4823012D01*
Y4960512D01*
X5009000D01*
Y5155512D01*
D02*
G37*
G36*
X455652Y5360359D02*
X407391D01*
X360057Y5350944D01*
X315470Y5332475D01*
X275343Y5305663D01*
X241217Y5271537D01*
X214405Y5231410D01*
X195937Y5186823D01*
X186521Y5139489D01*
Y5091228D01*
X195937Y5043895D01*
X214405Y4999308D01*
X241217Y4959180D01*
X275343Y4925055D01*
X315470Y4898243D01*
X360057Y4879774D01*
X407391Y4870359D01*
X455652D01*
X502985Y4879774D01*
X547572Y4898243D01*
X587700Y4925055D01*
X621825Y4959180D01*
X648638Y4999308D01*
X667106Y5043895D01*
X676521Y5091228D01*
Y5139489D01*
X667106Y5186823D01*
X648638Y5231410D01*
X621825Y5271537D01*
X587700Y5305663D01*
X547572Y5332475D01*
X502985Y5350944D01*
X455652Y5360359D01*
D02*
G37*
G36*
X4586807Y4697104D02*
X4568533Y4694698D01*
X4551505Y4687645D01*
X4550803Y4687106D01*
X4528900D01*
Y4666021D01*
X4525662Y4661802D01*
X4518609Y4644774D01*
X4516203Y4626500D01*
Y4468546D01*
X4403501D01*
Y4430588D01*
X4356123D01*
X4344323Y4442388D01*
X4325946Y4450000D01*
X4306054D01*
X4287677Y4442388D01*
X4273612Y4428323D01*
X4266000Y4409946D01*
Y4390054D01*
X4273612Y4371677D01*
X4287677Y4357612D01*
X4306054Y4350000D01*
X4325946D01*
X4344323Y4357612D01*
X4356123Y4369412D01*
X4403501D01*
Y4347333D01*
X4519314D01*
X4519315Y4347333D01*
X4528900D01*
Y4347333D01*
X4539315Y4347333D01*
X4550803D01*
X4551505Y4346795D01*
X4568533Y4339742D01*
X4586807Y4337336D01*
X4693000D01*
Y4318000D01*
X4793000D01*
Y4353174D01*
X4804145Y4367698D01*
X4811198Y4384727D01*
X4813604Y4403000D01*
X4811198Y4421274D01*
X4804145Y4438302D01*
X4793000Y4452826D01*
Y4488000D01*
X4693000D01*
Y4478543D01*
X4657411D01*
Y4626500D01*
X4655005Y4644774D01*
X4647951Y4661802D01*
X4644714Y4666021D01*
Y4687106D01*
X4622810D01*
X4622109Y4687645D01*
X4605080Y4694698D01*
X4586807Y4697104D01*
D02*
G37*
G36*
X3528088Y4413287D02*
X3428089D01*
Y4233288D01*
X3528088D01*
Y4413287D01*
D02*
G37*
G36*
X5456374Y4056500D02*
X5436626D01*
X5417551Y4051389D01*
X5400449Y4041515D01*
X5386485Y4027551D01*
X5376611Y4010449D01*
X5371500Y3991374D01*
Y3971626D01*
X5376611Y3952551D01*
X5386485Y3935449D01*
X5400449Y3921485D01*
X5417551Y3911611D01*
X5436626Y3906500D01*
X5456374D01*
X5475449Y3911611D01*
X5492551Y3921485D01*
X5506515Y3935449D01*
X5516389Y3952551D01*
X5521500Y3971626D01*
Y3991374D01*
X5516389Y4010449D01*
X5506515Y4027551D01*
X5492551Y4041515D01*
X5475449Y4051389D01*
X5456374Y4056500D01*
D02*
G37*
G36*
X7910192Y3903500D02*
X7886495D01*
X7863605Y3897367D01*
X7843083Y3885518D01*
X7826326Y3868761D01*
X7814477Y3848239D01*
X7808344Y3825349D01*
Y3801652D01*
X7811147Y3791190D01*
X7720839Y3700881D01*
X7576934D01*
Y3715000D01*
X7446934D01*
Y3700882D01*
X7204860D01*
X7187302Y3697389D01*
X7172417Y3687443D01*
X7165687Y3680713D01*
X7145730Y3680607D01*
Y3680606D01*
X7024518D01*
Y3672882D01*
X7003089D01*
Y3679001D01*
X6810589D01*
Y3574001D01*
X7003089D01*
X7003089Y3574000D01*
X7016392Y3569368D01*
X7006156Y3552099D01*
X7003089Y3552001D01*
Y3552001D01*
X6810589D01*
Y3447001D01*
X7003089D01*
Y3454119D01*
X7024518D01*
Y3439394D01*
X7145730D01*
Y3439393D01*
X7165687Y3439287D01*
X7172417Y3432557D01*
X7187302Y3422611D01*
X7204860Y3419118D01*
X7446934D01*
Y3405000D01*
X7576934D01*
Y3419118D01*
X7791784D01*
X7809342Y3422611D01*
X7824227Y3432557D01*
X7869677Y3478007D01*
X7886495Y3473500D01*
X7910192D01*
X7933082Y3479634D01*
X7953605Y3491482D01*
X7970362Y3508239D01*
X7982210Y3528762D01*
X7988344Y3551652D01*
Y3575349D01*
X7982210Y3598239D01*
X7970362Y3618761D01*
X7953605Y3635518D01*
X7933082Y3647367D01*
X7910192Y3653500D01*
X7886495D01*
X7863605Y3647367D01*
X7843083Y3635518D01*
X7826326Y3618761D01*
X7814477Y3598239D01*
X7808344Y3575349D01*
Y3551652D01*
X7809444Y3547547D01*
X7772779Y3510881D01*
X7576934D01*
Y3525000D01*
X7446934D01*
Y3510881D01*
X7223865D01*
X7202303Y3532443D01*
X7187418Y3542389D01*
X7169860Y3545882D01*
X7156861D01*
X7148653Y3565882D01*
X7152769Y3574014D01*
X7159873Y3581119D01*
X7176860D01*
X7194419Y3584611D01*
X7209304Y3594557D01*
X7223865Y3609119D01*
X7446934D01*
Y3595000D01*
X7576934D01*
Y3609118D01*
X7739844D01*
X7757402Y3612611D01*
X7772287Y3622557D01*
X7876034Y3726303D01*
X7886495Y3723500D01*
X7910192D01*
X7933082Y3729634D01*
X7953605Y3741482D01*
X7970362Y3758239D01*
X7982210Y3778762D01*
X7988344Y3801652D01*
Y3825349D01*
X7982210Y3848239D01*
X7970362Y3868761D01*
X7953605Y3885518D01*
X7933082Y3897367D01*
X7910192Y3903500D01*
D02*
G37*
G36*
X4135946Y3954000D02*
X4116055D01*
X4097677Y3946388D01*
X4083612Y3932323D01*
X4076000Y3913946D01*
Y3894054D01*
X4083612Y3875677D01*
X4095412Y3863877D01*
Y3723977D01*
X4076935Y3716323D01*
X4042200Y3751058D01*
Y3763946D01*
X4034588Y3782323D01*
X4020523Y3796388D01*
X4002146Y3804000D01*
X3982254D01*
X3963877Y3796388D01*
X3949812Y3782323D01*
X3942200Y3763946D01*
Y3744054D01*
X3949812Y3725677D01*
X3963877Y3711612D01*
X3982254Y3704000D01*
X4002146D01*
X4002567Y3704175D01*
X4110412Y3596330D01*
Y3083550D01*
X4106000D01*
Y2896050D01*
X4726000D01*
Y3083550D01*
X4571588D01*
Y3163033D01*
X4603670Y3195115D01*
X5239122D01*
X5239123Y3195115D01*
X5250828Y3197443D01*
X5260752Y3204074D01*
X5399090Y3342412D01*
X6268189D01*
Y3320001D01*
X6460689D01*
Y3425001D01*
X6268189D01*
Y3403588D01*
X5397190D01*
X5388906Y3423588D01*
X5688730Y3723412D01*
X6268189D01*
Y3701001D01*
X6460689D01*
Y3806001D01*
X6268189D01*
Y3784588D01*
X5676062D01*
X5676061Y3784588D01*
X5664355Y3782259D01*
X5654432Y3775629D01*
X5654431Y3775628D01*
X5185550Y3306747D01*
X4576000D01*
X4564294Y3304419D01*
X4554371Y3297788D01*
X4554371Y3297787D01*
X4469371Y3212788D01*
X4462741Y3202865D01*
X4460412Y3191159D01*
X4460412Y3191158D01*
Y3083550D01*
X4221588D01*
Y3615568D01*
X4219259Y3627274D01*
X4212629Y3637197D01*
X4212628Y3637198D01*
X4156588Y3693238D01*
Y3863877D01*
X4168388Y3875677D01*
X4176000Y3894054D01*
Y3913946D01*
X4168388Y3932323D01*
X4154323Y3946388D01*
X4135946Y3954000D01*
D02*
G37*
G36*
X4798349Y3871500D02*
X4774651D01*
X4751761Y3865366D01*
X4731239Y3853518D01*
X4714482Y3836761D01*
X4702633Y3816238D01*
X4696500Y3793349D01*
Y3769651D01*
X4702633Y3746761D01*
X4714482Y3726239D01*
X4731239Y3709482D01*
X4751761Y3697633D01*
X4774651Y3691500D01*
X4798349D01*
X4821239Y3697633D01*
X4841761Y3709482D01*
X4858518Y3726239D01*
X4870366Y3746761D01*
X4876500Y3769651D01*
Y3793349D01*
X4870366Y3816238D01*
X4858518Y3836761D01*
X4841761Y3853518D01*
X4821239Y3865366D01*
X4798349Y3871500D01*
D02*
G37*
G36*
X4548349D02*
X4524651D01*
X4501761Y3865366D01*
X4481239Y3853518D01*
X4464482Y3836761D01*
X4452633Y3816238D01*
X4446500Y3793349D01*
Y3769651D01*
X4452633Y3746761D01*
X4464482Y3726239D01*
X4481239Y3709482D01*
X4501761Y3697633D01*
X4524651Y3691500D01*
X4548349D01*
X4571239Y3697633D01*
X4591761Y3709482D01*
X4608518Y3726239D01*
X4620366Y3746761D01*
X4626500Y3769651D01*
Y3793349D01*
X4620366Y3816238D01*
X4608518Y3836761D01*
X4591761Y3853518D01*
X4571239Y3865366D01*
X4548349Y3871500D01*
D02*
G37*
G36*
X4298349D02*
X4274651D01*
X4251761Y3865366D01*
X4231239Y3853518D01*
X4214482Y3836761D01*
X4202633Y3816238D01*
X4196500Y3793349D01*
Y3769651D01*
X4202633Y3746761D01*
X4214482Y3726239D01*
X4231239Y3709482D01*
X4251761Y3697633D01*
X4274651Y3691500D01*
X4298349D01*
X4321238Y3697633D01*
X4341761Y3709482D01*
X4358518Y3726239D01*
X4370366Y3746761D01*
X4376500Y3769651D01*
Y3793349D01*
X4370366Y3816238D01*
X4358518Y3836761D01*
X4341761Y3853518D01*
X4321238Y3865366D01*
X4298349Y3871500D01*
D02*
G37*
G36*
X6460689Y3679001D02*
X6268189D01*
Y3574001D01*
X6460689D01*
Y3596412D01*
X6484330D01*
X6531677Y3549066D01*
X6524023Y3530588D01*
X6460689D01*
Y3552001D01*
X6268189D01*
Y3447001D01*
X6460689D01*
Y3469412D01*
X6611330D01*
X6628617Y3452126D01*
Y2567975D01*
X6608617Y2559691D01*
X6602768Y2565539D01*
X6584391Y2573151D01*
X6564500D01*
X6554557Y2569033D01*
X6460781D01*
Y2570803D01*
X6268281D01*
Y2564184D01*
X6179494D01*
X6161936Y2560692D01*
X6161078Y2560118D01*
X6127705D01*
X6123272Y2559237D01*
X6015205D01*
Y2466246D01*
X5996727Y2458592D01*
X5742690Y2712629D01*
X5732767Y2719259D01*
X5721061Y2721588D01*
X5721060Y2721588D01*
X5282541D01*
X5271851Y2741588D01*
X5271936Y2741715D01*
X6268281D01*
Y2719803D01*
X6460781D01*
Y2824803D01*
X6268281D01*
Y2802891D01*
X5262386D01*
X5254101Y2822890D01*
X5258888Y2827677D01*
X5266500Y2846054D01*
Y2865945D01*
X5258888Y2884323D01*
X5244823Y2898388D01*
X5226445Y2906000D01*
X5206554D01*
X5188177Y2898388D01*
X5174112Y2884323D01*
X5166500Y2865945D01*
Y2849257D01*
X5138830Y2821588D01*
X5034977D01*
X5027323Y2840065D01*
X5079258Y2892000D01*
X5095946D01*
X5114323Y2899612D01*
X5128388Y2913677D01*
X5136000Y2932054D01*
Y2951946D01*
X5128388Y2970323D01*
X5114323Y2984388D01*
X5095946Y2992000D01*
X5076054D01*
X5057677Y2984388D01*
X5043612Y2970323D01*
X5036000Y2951946D01*
Y2935258D01*
X4972330Y2871588D01*
X4933550D01*
Y2876000D01*
X4746050D01*
Y2756000D01*
Y2656000D01*
Y2556000D01*
Y2456000D01*
Y2356000D01*
Y2256000D01*
X4933550D01*
Y2260412D01*
X5153486D01*
X5448437Y1965462D01*
X5458360Y1958831D01*
X5470066Y1956503D01*
X5859656D01*
X5867940Y1936503D01*
X5608419Y1676982D01*
X5140430D01*
X5138798Y1696306D01*
X5138798D01*
Y1831911D01*
X4937817D01*
Y1794696D01*
X4860955D01*
X4721588Y1934064D01*
Y2048450D01*
X4726000D01*
Y2235950D01*
X4106000D01*
Y2048450D01*
X4110412D01*
Y1939362D01*
X3612776D01*
X3612775Y1939362D01*
X3608588Y1938530D01*
X3591451Y1949143D01*
X3588588Y1952748D01*
Y2056854D01*
X3792146Y2260412D01*
X3898450D01*
Y2256000D01*
X4085950D01*
Y2306000D01*
Y2406000D01*
Y2526000D01*
X3898450D01*
Y2521588D01*
X3496723D01*
Y2567564D01*
X3321723D01*
Y2502918D01*
X3295994D01*
Y2529830D01*
X3170994D01*
Y2440688D01*
X3160993Y2424831D01*
X3155136Y2424830D01*
X3153656Y2424830D01*
X3035994D01*
Y2364983D01*
X3012831D01*
Y2399008D01*
X2837831D01*
Y2264008D01*
X3012831D01*
Y2303808D01*
X3087784D01*
X3228084Y2163508D01*
X3238007Y2156877D01*
X3249713Y2154549D01*
X3249714Y2154549D01*
X3426132D01*
X3433754Y2152050D01*
X3445276Y2136825D01*
Y2086394D01*
X3310864D01*
Y2046982D01*
X2980864D01*
Y2086394D01*
X2785864D01*
Y2046982D01*
X2741461D01*
X2729756Y2044653D01*
X2719832Y2038023D01*
X2719832Y2038022D01*
X2705584Y2023774D01*
X2600309D01*
Y1888774D01*
X2775309D01*
Y1930766D01*
X2785864Y1946394D01*
X2980864D01*
Y1985806D01*
X3084837D01*
X3097115Y1965806D01*
X3093849Y1957922D01*
Y1938031D01*
X3101461Y1919654D01*
X3115526Y1905588D01*
X3133904Y1897976D01*
X3153795D01*
X3172172Y1905588D01*
X3186237Y1919654D01*
X3193849Y1938031D01*
Y1957922D01*
X3190583Y1965806D01*
X3202861Y1985806D01*
X3310864D01*
Y1946394D01*
X3487412D01*
Y1644685D01*
X3457207Y1614479D01*
X2736589D01*
X2724884Y1612151D01*
X2714960Y1605521D01*
X2714960Y1605520D01*
X2111328Y1001888D01*
X2026544D01*
Y1029207D01*
X1905331D01*
Y913394D01*
X1935350D01*
Y640000D01*
X1875938D01*
Y460000D01*
X2055938D01*
Y640000D01*
X1996526D01*
Y913394D01*
X2026544D01*
Y940713D01*
X2123997D01*
X2123998Y940713D01*
X2135703Y943041D01*
X2145627Y949672D01*
X2540350Y1344395D01*
X2560350Y1336111D01*
Y1001888D01*
X2526544D01*
Y1029207D01*
X2405331D01*
Y913394D01*
X2435350D01*
Y634979D01*
X2431199Y633866D01*
X2410677Y622018D01*
X2393920Y605261D01*
X2382071Y584738D01*
X2375938Y561849D01*
Y538151D01*
X2382071Y515261D01*
X2393920Y494739D01*
X2410677Y477982D01*
X2431199Y466133D01*
X2454089Y460000D01*
X2477787D01*
X2500676Y466133D01*
X2521199Y477982D01*
X2537956Y494739D01*
X2549804Y515261D01*
X2555938Y538151D01*
Y561849D01*
X2549804Y584738D01*
X2537956Y605261D01*
X2521199Y622018D01*
X2500676Y633866D01*
X2496526Y634979D01*
Y913394D01*
X2526544D01*
Y940713D01*
X2579221D01*
X2579222Y940713D01*
X2590928Y943041D01*
X2600851Y949672D01*
X2612566Y961387D01*
X2612567Y961387D01*
X2619197Y971311D01*
X2621526Y983016D01*
X2621526Y983018D01*
Y1334268D01*
X2800562Y1513304D01*
X3197853D01*
X3205507Y1494826D01*
X3084720Y1374040D01*
X3078090Y1364117D01*
X3075761Y1352411D01*
X3075761Y1352410D01*
Y999189D01*
X3026544D01*
Y1029207D01*
X2905332D01*
Y913394D01*
X2935350D01*
Y634979D01*
X2931199Y633866D01*
X2910677Y622018D01*
X2893920Y605261D01*
X2882071Y584738D01*
X2875938Y561849D01*
Y538151D01*
X2882071Y515261D01*
X2893920Y494739D01*
X2910677Y477982D01*
X2931199Y466133D01*
X2954089Y460000D01*
X2977787D01*
X3000676Y466133D01*
X3021199Y477982D01*
X3037956Y494739D01*
X3049804Y515261D01*
X3055938Y538151D01*
Y561849D01*
X3049804Y584738D01*
X3037956Y605261D01*
X3021199Y622018D01*
X3000676Y633866D01*
X2996526Y634979D01*
Y913394D01*
X3026544D01*
Y938013D01*
X3094632D01*
X3094633Y938013D01*
X3106339Y940342D01*
X3116262Y946972D01*
X3127977Y958687D01*
X3127978Y958688D01*
X3134608Y968611D01*
X3136937Y980317D01*
X3136937Y980318D01*
Y1339741D01*
X3270499Y1473304D01*
X3503012D01*
X3503014Y1473304D01*
X3514719Y1475633D01*
X3524642Y1482263D01*
X3619629Y1577249D01*
X3626259Y1587173D01*
X3628588Y1598878D01*
Y1804796D01*
X3633243Y1807403D01*
X3648588Y1810928D01*
X3659404Y1800111D01*
X3677782Y1792499D01*
X3697673D01*
X3716050Y1800111D01*
X3730115Y1814176D01*
X3734198Y1824032D01*
X3786789D01*
X3797479Y1804032D01*
X3796121Y1802000D01*
X3796054D01*
X3777677Y1794388D01*
X3763612Y1780323D01*
X3756000Y1761946D01*
Y1742054D01*
X3763612Y1723677D01*
X3777677Y1709612D01*
X3770895Y1690774D01*
X3766054Y1684000D01*
X3747677Y1676388D01*
X3733612Y1662323D01*
X3726000Y1643946D01*
Y1624054D01*
X3733612Y1605677D01*
X3747677Y1591612D01*
X3766054Y1584000D01*
X3785946D01*
X3804323Y1591612D01*
X3818388Y1605677D01*
X3826000Y1624054D01*
Y1640742D01*
X3906670Y1721412D01*
X4209476D01*
X4217761Y1701412D01*
X4193330Y1676982D01*
X3973573D01*
X3961773Y1688782D01*
X3943395Y1696394D01*
X3923504D01*
X3905127Y1688782D01*
X3891062Y1674717D01*
X3883450Y1656340D01*
Y1636448D01*
X3891062Y1618071D01*
X3905127Y1604006D01*
X3923504Y1596394D01*
X3943395D01*
X3961773Y1604006D01*
X3973573Y1615806D01*
X4178526D01*
X4186179Y1597329D01*
X4123330Y1534480D01*
X3786123D01*
X3774323Y1546280D01*
X3755946Y1553892D01*
X3736055D01*
X3717677Y1546280D01*
X3703612Y1532215D01*
X3696000Y1513837D01*
Y1493946D01*
X3703612Y1475569D01*
X3717677Y1461504D01*
X3736055Y1453892D01*
X3755946D01*
X3774323Y1461504D01*
X3786123Y1473304D01*
X4135999D01*
X4136000Y1473304D01*
X4147705Y1475633D01*
X4157629Y1482263D01*
X4391935Y1716569D01*
X4410412Y1708915D01*
Y1486238D01*
X4410412Y1486237D01*
X4412741Y1474531D01*
X4419371Y1464608D01*
X4599608Y1284371D01*
X4609531Y1277741D01*
X4621237Y1275412D01*
X5576566D01*
X5576567Y1275412D01*
X5588272Y1277741D01*
X5598196Y1284371D01*
X5684474Y1370649D01*
X6268250D01*
Y1348736D01*
X6460750D01*
Y1453736D01*
X6268250D01*
Y1431824D01*
X6212755D01*
X6195204Y1437737D01*
Y1482355D01*
X6268250D01*
Y1475736D01*
X6460750D01*
Y1482355D01*
X6571769D01*
X6572054Y1482237D01*
X6591946D01*
X6608617Y1489142D01*
X6617259Y1486061D01*
X6628617Y1479858D01*
Y1435142D01*
X6207079Y1013604D01*
X4256000D01*
X4244295Y1011276D01*
X4234371Y1004645D01*
X4024371Y794645D01*
X4017741Y784722D01*
X4015412Y773016D01*
X4015412Y773015D01*
Y640000D01*
X3956000D01*
Y460000D01*
X4136000D01*
Y640000D01*
X4076588D01*
Y760346D01*
X4268670Y952429D01*
X4436024D01*
X4443677Y933951D01*
X4274371Y764645D01*
X4267741Y754722D01*
X4265412Y743016D01*
X4265412Y743015D01*
Y634979D01*
X4261261Y633866D01*
X4240739Y622018D01*
X4223982Y605261D01*
X4212134Y584738D01*
X4206000Y561849D01*
Y538151D01*
X4212134Y515261D01*
X4223982Y494739D01*
X4240739Y477982D01*
X4261261Y466133D01*
X4284151Y460000D01*
X4307849D01*
X4330739Y466133D01*
X4351261Y477982D01*
X4368018Y494739D01*
X4379867Y515261D01*
X4386000Y538151D01*
Y561849D01*
X4379867Y584738D01*
X4368018Y605261D01*
X4351261Y622018D01*
X4330739Y633866D01*
X4326588Y634979D01*
Y730346D01*
X4499047Y902806D01*
X6226693D01*
X6226695Y902805D01*
X6238400Y905134D01*
X6248324Y911764D01*
X6720833Y1384274D01*
X6727464Y1394198D01*
X6729792Y1405903D01*
Y1416431D01*
X6748270Y1424084D01*
X6792747Y1379608D01*
X6802670Y1372977D01*
X6810650Y1371390D01*
Y1348736D01*
X7003150D01*
Y1355355D01*
X7108598D01*
Y1343330D01*
X7229811D01*
Y1459143D01*
X7108598D01*
Y1447118D01*
X7003150D01*
Y1453736D01*
X6818303D01*
X6817326Y1455736D01*
X6829816Y1475736D01*
X7003150D01*
Y1482355D01*
X7278500D01*
Y1481736D01*
X7289014D01*
X7292589Y1479348D01*
X7305118Y1476855D01*
Y1364410D01*
Y1202083D01*
X7308611Y1184525D01*
X7318557Y1169640D01*
X7338951Y1149246D01*
Y1092920D01*
X7444349D01*
X7454764Y1092920D01*
X7474765Y1092920D01*
X7580163D01*
Y1113989D01*
X7811495D01*
Y1076216D01*
X7991495D01*
Y1256215D01*
X7811495D01*
Y1205752D01*
X7580163D01*
Y1214133D01*
X7474765D01*
X7464349Y1214133D01*
X7444349Y1214133D01*
X7403837D01*
X7396882Y1221088D01*
Y1345405D01*
X7421810Y1370334D01*
X7824062D01*
X7829477Y1360954D01*
X7846234Y1344198D01*
X7866756Y1332349D01*
X7889646Y1326216D01*
X7913344D01*
X7936234Y1332349D01*
X7956756Y1344198D01*
X7973513Y1360954D01*
X7985361Y1381477D01*
X7991495Y1404367D01*
Y1428064D01*
X7985361Y1450954D01*
X7973513Y1471476D01*
X7956756Y1488233D01*
X7936234Y1500082D01*
X7913344Y1506215D01*
X7889646D01*
X7866756Y1500082D01*
X7846234Y1488233D01*
X7829477Y1471476D01*
X7824062Y1462097D01*
X7424370D01*
X7423500Y1481737D01*
X7423500D01*
Y1571736D01*
X7355432D01*
X7351000Y1572618D01*
X7346568Y1571736D01*
X7315621D01*
X7303647Y1574118D01*
X7003150D01*
Y1580736D01*
X6810650D01*
Y1495722D01*
X6810650Y1491627D01*
X6809084Y1475054D01*
X6795965Y1462905D01*
X6780380Y1478490D01*
Y1731938D01*
X6798867Y1745274D01*
X6803656Y1743719D01*
X6810364Y1737751D01*
X6810650Y1732598D01*
Y1729736D01*
X7003150D01*
Y1738755D01*
X7108598D01*
Y1729130D01*
X7229811D01*
Y1844944D01*
X7108598D01*
Y1830518D01*
X7003150D01*
Y1834736D01*
X6828463D01*
Y1994523D01*
X6828463Y1994524D01*
X6826135Y2006229D01*
X6819504Y2016153D01*
X6819504Y2016153D01*
X6745578Y2090079D01*
X6735655Y2096709D01*
X6723949Y2099038D01*
X6723948Y2099037D01*
X5609523D01*
X5366626Y2341935D01*
X5374279Y2360412D01*
X5416553D01*
X5647863Y2129102D01*
X5647863Y2129102D01*
X5657787Y2122471D01*
X5669492Y2120143D01*
X6713729D01*
X6713730Y2120143D01*
X6725435Y2122471D01*
X6735359Y2129102D01*
X6925147Y2318890D01*
X6931777Y2328813D01*
X6933764Y2338803D01*
X7003181D01*
Y2344958D01*
X7085124D01*
Y2332469D01*
X7206337D01*
Y2448283D01*
X7085124D01*
Y2436721D01*
X7003181D01*
Y2443803D01*
X6810681D01*
Y2338803D01*
X6832413D01*
X6840067Y2320325D01*
X6701060Y2181318D01*
X6626516D01*
X6626025Y2182532D01*
X6623189Y2201318D01*
X6629360Y2205441D01*
X6772216Y2348298D01*
X6772217Y2348298D01*
X6778847Y2358222D01*
X6781176Y2369927D01*
Y2712116D01*
X6795252Y2726193D01*
X6810681Y2719803D01*
Y2719803D01*
X7003181D01*
Y2726329D01*
X7085124D01*
Y2714212D01*
X7206337D01*
Y2830026D01*
X7085124D01*
Y2818092D01*
X7003181D01*
Y2824803D01*
X6810681D01*
Y2816711D01*
X6798104Y2802891D01*
X6786399Y2800562D01*
X6776475Y2793932D01*
X6776475Y2793931D01*
X6728959Y2746415D01*
X6722329Y2736492D01*
X6720000Y2724787D01*
X6720000Y2724785D01*
Y2382597D01*
X6595061Y2257658D01*
X6561380D01*
X6559410Y2277658D01*
X6565205Y2278811D01*
X6575128Y2285441D01*
X6680833Y2391146D01*
X6687464Y2401070D01*
X6689793Y2412775D01*
X6689792Y2412776D01*
Y3464795D01*
X6687464Y3476501D01*
X6680833Y3486424D01*
X6680833Y3486425D01*
X6645629Y3521629D01*
X6645628Y3521629D01*
X6518629Y3648629D01*
X6508705Y3655259D01*
X6497000Y3657588D01*
X6496999Y3657588D01*
X6460689D01*
Y3679001D01*
D02*
G37*
G36*
X1462912Y2927151D02*
X1444480D01*
X1426677Y2922381D01*
X1410715Y2913165D01*
X1397682Y2900132D01*
X1388467Y2884170D01*
X1383696Y2866367D01*
Y2847936D01*
X1388467Y2830132D01*
X1397682Y2814170D01*
X1410715Y2801137D01*
X1426677Y2791922D01*
X1444480Y2787151D01*
X1462912D01*
X1480715Y2791922D01*
X1496677Y2801137D01*
X1509710Y2814170D01*
X1518926Y2830132D01*
X1523696Y2847936D01*
Y2866367D01*
X1518926Y2884170D01*
X1509710Y2900132D01*
X1496677Y2913165D01*
X1480715Y2922381D01*
X1462912Y2927151D01*
D02*
G37*
G36*
X7910192Y2830767D02*
X7886495D01*
X7863605Y2824634D01*
X7843083Y2812785D01*
X7826326Y2796028D01*
X7820911Y2786649D01*
X7488054D01*
X7470495Y2783156D01*
X7455610Y2773211D01*
X7373584Y2691184D01*
X7003181D01*
Y2697803D01*
X6810681D01*
Y2592803D01*
X7003181D01*
Y2599421D01*
X7392589D01*
X7396406Y2600180D01*
X7423500D01*
Y2611836D01*
X7425032Y2612860D01*
X7507058Y2694886D01*
X7820911D01*
X7826326Y2685506D01*
X7843083Y2668750D01*
X7863605Y2656901D01*
X7886495Y2650768D01*
X7910192D01*
X7933082Y2656901D01*
X7953605Y2668750D01*
X7970362Y2685506D01*
X7982210Y2706029D01*
X7988344Y2728919D01*
Y2752616D01*
X7982210Y2775506D01*
X7970362Y2796028D01*
X7953605Y2812785D01*
X7933082Y2824634D01*
X7910192Y2830767D01*
D02*
G37*
G36*
Y2580767D02*
X7886495D01*
X7863605Y2574634D01*
X7843083Y2562785D01*
X7826326Y2546028D01*
X7814477Y2525506D01*
X7808344Y2502616D01*
Y2484118D01*
X7511005D01*
X7444377Y2550746D01*
X7429492Y2560692D01*
X7411934Y2564184D01*
X7003181D01*
Y2570803D01*
X6810681D01*
Y2465803D01*
X7003181D01*
Y2472421D01*
X7278500D01*
Y2470180D01*
X7366052D01*
Y2287677D01*
X7338951D01*
Y2166464D01*
X7444349D01*
X7454764Y2166464D01*
X7474765Y2166464D01*
X7580163D01*
Y2188037D01*
X7808344D01*
Y2150768D01*
X7988344D01*
Y2330767D01*
X7808344D01*
Y2279800D01*
X7580163D01*
Y2287677D01*
X7464350Y2287677D01*
X7457815Y2304970D01*
Y2382903D01*
X7464956Y2388462D01*
X7477816Y2395177D01*
X7492000Y2392355D01*
X7845813D01*
X7863371Y2395848D01*
X7875246Y2403782D01*
X7886495Y2400768D01*
X7910192D01*
X7933082Y2406901D01*
X7953605Y2418750D01*
X7970362Y2435506D01*
X7982210Y2456029D01*
X7988344Y2478919D01*
Y2502616D01*
X7982210Y2525506D01*
X7970362Y2546028D01*
X7953605Y2562785D01*
X7933082Y2574634D01*
X7910192Y2580767D01*
D02*
G37*
G36*
X2302265Y2706000D02*
X2282374D01*
X2263997Y2698388D01*
X2249931Y2684323D01*
X2242320Y2665946D01*
Y2648519D01*
X2237176Y2640821D01*
X2234847Y2629116D01*
X2234848Y2629115D01*
Y2036517D01*
X2223047Y2024717D01*
X2215435Y2006340D01*
X2195938Y2007552D01*
X2195938Y2024116D01*
X2188326Y2042493D01*
X2176525Y2054294D01*
Y2287417D01*
X2180119Y2288906D01*
X2194184Y2302971D01*
X2201796Y2321348D01*
Y2341239D01*
X2194184Y2359616D01*
X2180119Y2373682D01*
X2161741Y2381293D01*
X2141850D01*
X2123473Y2373682D01*
X2109408Y2359616D01*
X2101796Y2341239D01*
Y2321348D01*
X2109408Y2302971D01*
X2115350Y2297028D01*
Y2054294D01*
X2103550Y2042493D01*
X2095938Y2024116D01*
Y2004225D01*
X2103550Y1985848D01*
X2117615Y1971782D01*
X2135992Y1964171D01*
X2155883D01*
X2174261Y1971782D01*
X2188326Y1985848D01*
X2195938Y2004224D01*
X2215435Y2003012D01*
X2215435Y1986448D01*
X2223047Y1968071D01*
X2237113Y1954006D01*
X2255490Y1946394D01*
X2275381D01*
X2293758Y1954006D01*
X2305587Y1965834D01*
X2317066Y1967073D01*
X2328545Y1965834D01*
X2340373Y1954006D01*
X2358750Y1946394D01*
X2378642D01*
X2397019Y1954006D01*
X2411084Y1968071D01*
X2418696Y1986448D01*
Y2006339D01*
X2411084Y2024717D01*
X2399284Y2036517D01*
Y2506523D01*
X2404261Y2508584D01*
X2418326Y2522649D01*
X2425938Y2541026D01*
Y2560918D01*
X2418326Y2579295D01*
X2404261Y2593360D01*
X2385884Y2600972D01*
X2365992D01*
X2347615Y2593360D01*
X2333550Y2579295D01*
X2325938Y2560918D01*
Y2541026D01*
X2333550Y2522649D01*
X2338108Y2518091D01*
Y2036517D01*
X2328545Y2026953D01*
X2317066Y2025714D01*
X2305587Y2026953D01*
X2296023Y2036517D01*
Y2606000D01*
X2302265D01*
X2320642Y2613612D01*
X2334708Y2627677D01*
X2342319Y2646054D01*
Y2665946D01*
X2334708Y2684323D01*
X2320642Y2698388D01*
X2302265Y2706000D01*
D02*
G37*
G36*
X1462912Y2127151D02*
X1444480D01*
X1426677Y2122381D01*
X1410715Y2113165D01*
X1397682Y2100132D01*
X1388467Y2084170D01*
X1383696Y2066367D01*
Y2047936D01*
X1388467Y2030132D01*
X1397682Y2014170D01*
X1410715Y2001137D01*
X1426677Y1991922D01*
X1444480Y1987151D01*
X1462912D01*
X1480715Y1991922D01*
X1496677Y2001137D01*
X1509710Y2014170D01*
X1518926Y2030132D01*
X1523696Y2047936D01*
Y2066367D01*
X1518926Y2084170D01*
X1509710Y2100132D01*
X1496677Y2113165D01*
X1480715Y2122381D01*
X1462912Y2127151D01*
D02*
G37*
G36*
X7913344Y1756215D02*
X7889646D01*
X7866756Y1750082D01*
X7846234Y1738233D01*
X7845882Y1737881D01*
X7428408D01*
X7410850Y1734389D01*
X7395965Y1724443D01*
X7374140Y1702618D01*
X7362293D01*
X7357861Y1701736D01*
X7278500D01*
Y1701118D01*
X7003150D01*
Y1707736D01*
X6810650D01*
Y1602736D01*
X7003150D01*
Y1609355D01*
X7362293D01*
X7369835Y1610855D01*
X7393145D01*
X7397577Y1611737D01*
X7423500D01*
Y1622898D01*
X7425588Y1624293D01*
X7447413Y1646118D01*
X7813705D01*
X7817629Y1631477D01*
X7829477Y1610954D01*
X7846234Y1594198D01*
X7866756Y1582349D01*
X7889646Y1576216D01*
X7913344D01*
X7936234Y1582349D01*
X7956756Y1594198D01*
X7973513Y1610954D01*
X7985361Y1631477D01*
X7991495Y1654367D01*
Y1678064D01*
X7985361Y1700954D01*
X7973513Y1721476D01*
X7956756Y1738233D01*
X7936234Y1750082D01*
X7913344Y1756215D01*
D02*
G37*
G36*
X4807849Y640000D02*
X4784151D01*
X4761261Y633866D01*
X4740739Y622018D01*
X4723982Y605261D01*
X4712134Y584738D01*
X4706000Y561849D01*
Y538151D01*
X4712134Y515261D01*
X4723982Y494739D01*
X4740739Y477982D01*
X4761261Y466133D01*
X4784151Y460000D01*
X4807849D01*
X4830739Y466133D01*
X4851261Y477982D01*
X4868018Y494739D01*
X4879867Y515261D01*
X4886000Y538151D01*
Y561849D01*
X4879867Y584738D01*
X4868018Y605261D01*
X4851261Y622018D01*
X4830739Y633866D01*
X4807849Y640000D01*
D02*
G37*
G36*
X3227787D02*
X3204089D01*
X3181199Y633866D01*
X3160677Y622018D01*
X3143920Y605261D01*
X3132071Y584738D01*
X3125938Y561849D01*
Y538151D01*
X3132071Y515261D01*
X3143920Y494739D01*
X3160677Y477982D01*
X3181199Y466133D01*
X3204089Y460000D01*
X3227787D01*
X3250677Y466133D01*
X3271199Y477982D01*
X3287956Y494739D01*
X3299804Y515261D01*
X3305938Y538151D01*
Y561849D01*
X3299804Y584738D01*
X3287956Y605261D01*
X3271199Y622018D01*
X3250677Y633866D01*
X3227787Y640000D01*
D02*
G37*
G36*
X2727787D02*
X2704089D01*
X2681199Y633866D01*
X2660677Y622018D01*
X2643920Y605261D01*
X2632071Y584738D01*
X2625938Y561849D01*
Y538151D01*
X2632071Y515261D01*
X2643920Y494739D01*
X2660677Y477982D01*
X2681199Y466133D01*
X2704089Y460000D01*
X2727787D01*
X2750676Y466133D01*
X2771199Y477982D01*
X2787956Y494739D01*
X2799804Y515261D01*
X2805938Y538151D01*
Y561849D01*
X2799804Y584738D01*
X2787956Y605261D01*
X2771199Y622018D01*
X2750676Y633866D01*
X2727787Y640000D01*
D02*
G37*
G36*
X2227787D02*
X2204089D01*
X2181199Y633866D01*
X2160677Y622018D01*
X2143920Y605261D01*
X2132071Y584738D01*
X2125938Y561849D01*
Y538151D01*
X2132071Y515261D01*
X2143920Y494739D01*
X2160677Y477982D01*
X2181199Y466133D01*
X2204089Y460000D01*
X2227787D01*
X2250676Y466133D01*
X2271199Y477982D01*
X2287956Y494739D01*
X2299804Y515261D01*
X2305938Y538151D01*
Y561849D01*
X2299804Y584738D01*
X2287956Y605261D01*
X2271199Y622018D01*
X2250676Y633866D01*
X2227787Y640000D01*
D02*
G37*
G36*
X6177848Y630500D02*
X6154151D01*
X6131261Y624367D01*
X6110739Y612518D01*
X6093982Y595761D01*
X6082133Y575239D01*
X6076000Y552349D01*
Y528651D01*
X6082133Y505761D01*
X6093982Y485239D01*
X6110739Y468482D01*
X6131261Y456634D01*
X6154151Y450500D01*
X6177848D01*
X6200738Y456634D01*
X6221261Y468482D01*
X6238017Y485239D01*
X6249866Y505761D01*
X6256000Y528651D01*
Y552349D01*
X6249866Y575239D01*
X6238017Y595761D01*
X6221261Y612518D01*
X6200738Y624367D01*
X6177848Y630500D01*
D02*
G37*
G36*
X5927848D02*
X5904151D01*
X5881261Y624367D01*
X5860739Y612518D01*
X5843982Y595761D01*
X5832133Y575239D01*
X5826000Y552349D01*
Y528651D01*
X5832133Y505761D01*
X5843982Y485239D01*
X5860739Y468482D01*
X5881261Y456634D01*
X5904151Y450500D01*
X5927848D01*
X5950738Y456634D01*
X5971261Y468482D01*
X5988017Y485239D01*
X5999866Y505761D01*
X6006000Y528651D01*
Y552349D01*
X5999866Y575239D01*
X5988017Y595761D01*
X5971261Y612518D01*
X5950738Y624367D01*
X5927848Y630500D01*
D02*
G37*
G36*
X1815812Y425000D02*
X1796064D01*
X1776989Y419889D01*
X1759887Y410015D01*
X1745923Y396051D01*
X1736049Y378949D01*
X1730938Y359874D01*
Y340126D01*
X1736049Y321051D01*
X1745923Y303949D01*
X1759887Y289985D01*
X1776989Y280111D01*
X1796064Y275000D01*
X1815812D01*
X1834887Y280111D01*
X1851989Y289985D01*
X1865953Y303949D01*
X1875827Y321051D01*
X1880938Y340126D01*
Y359874D01*
X1875827Y378949D01*
X1865953Y396051D01*
X1851989Y410015D01*
X1834887Y419889D01*
X1815812Y425000D01*
D02*
G37*
G36*
X456130Y689000D02*
X407869D01*
X360536Y679585D01*
X315949Y661116D01*
X275821Y634304D01*
X241696Y600178D01*
X214884Y560051D01*
X196415Y515464D01*
X187000Y468130D01*
Y419869D01*
X196415Y372536D01*
X214884Y327949D01*
X241696Y287821D01*
X275821Y253696D01*
X315949Y226884D01*
X360536Y208415D01*
X407869Y199000D01*
X456130D01*
X503464Y208415D01*
X548051Y226884D01*
X588178Y253696D01*
X622304Y287821D01*
X649116Y327949D01*
X667585Y372536D01*
X677000Y419869D01*
Y468130D01*
X667585Y515464D01*
X649116Y560051D01*
X622304Y600178D01*
X588178Y634304D01*
X548051Y661116D01*
X503464Y679585D01*
X456130Y689000D01*
D02*
G37*
%LPD*%
G36*
X1540455Y4909991D02*
Y4686471D01*
X1532835Y4678851D01*
X963351D01*
X654000Y4369500D01*
X499000D01*
Y4524500D01*
X892111Y4917611D01*
X1540455D01*
Y4909991D01*
D02*
G37*
G36*
X1788000Y5051469D02*
Y4914194D01*
X1750777Y4876971D01*
X1603955D01*
Y4917611D01*
X1703015D01*
Y5013639D01*
X1672073Y5044581D01*
X1483759D01*
Y5125794D01*
X1713674D01*
X1788000Y5051469D01*
D02*
G37*
G36*
X1743000Y4831254D02*
Y4589658D01*
X1672073Y4518731D01*
Y4366231D01*
X1559573D01*
Y4541231D01*
X1603955Y4585613D01*
Y4851571D01*
X1722683D01*
X1743000Y4831254D01*
D02*
G37*
G36*
X2654524Y2935572D02*
X2668723Y2922835D01*
Y2898660D01*
X2848722D01*
Y2935572D01*
X3351264D01*
X3384859Y2901978D01*
X3377205Y2883500D01*
X3234223D01*
Y2847935D01*
X3204589D01*
Y2884652D01*
X3029589D01*
Y2863131D01*
X2753908D01*
X2743729Y2867347D01*
X2723837D01*
X2713894Y2863228D01*
X2632795D01*
X2630382Y2865641D01*
Y2922157D01*
X2633219Y2925748D01*
X2650382Y2936396D01*
X2654524Y2935572D01*
D02*
G37*
G36*
X6628617Y2478328D02*
Y2425445D01*
X6540829Y2337658D01*
X6480306D01*
X6460781Y2338803D01*
Y2443803D01*
X6268281D01*
Y2421891D01*
X6214232D01*
X6195204Y2424237D01*
Y2472421D01*
X6268281D01*
Y2465803D01*
X6460781D01*
Y2477270D01*
X6554557D01*
X6564500Y2473152D01*
X6584391D01*
X6602768Y2480763D01*
X6608617Y2486612D01*
X6628617Y2478328D01*
D02*
G37*
G36*
X3645404Y2441934D02*
X3419194Y2215724D01*
X3262383D01*
X3160994Y2317113D01*
Y2398972D01*
X3170994Y2414829D01*
X3176851Y2414830D01*
X3178332Y2414830D01*
X3295994D01*
Y2441742D01*
X3321723D01*
Y2432564D01*
X3496723D01*
Y2460412D01*
X3637751D01*
X3645404Y2441934D01*
D02*
G37*
G36*
X5999129Y2369675D02*
X5999129Y2369674D01*
X6009053Y2363044D01*
X6020758Y2360715D01*
X6020760Y2360715D01*
X6268281D01*
Y2338803D01*
X6248755Y2337658D01*
X5902850D01*
X5727879Y2512629D01*
X5717956Y2519259D01*
X5706250Y2521588D01*
X5706249Y2521588D01*
X4933550D01*
Y2660412D01*
X5708391D01*
X5999129Y2369675D01*
D02*
G37*
G36*
X5868551Y2285442D02*
X5868551Y2285441D01*
X5878475Y2278811D01*
X5884270Y2277658D01*
X5882300Y2257658D01*
X5783276D01*
X5599000Y2441934D01*
X5606654Y2460412D01*
X5693580D01*
X5868551Y2285442D01*
D02*
G37*
G36*
X5748977Y2205442D02*
X5748978Y2205441D01*
X5755149Y2201318D01*
X5752313Y2182533D01*
X5751822Y2181318D01*
X5682162D01*
X5471546Y2391935D01*
X5479199Y2410412D01*
X5544007D01*
X5748977Y2205442D01*
D02*
G37*
G36*
X5575224Y2046822D02*
X5575224Y2046821D01*
X5585147Y2040190D01*
X5596853Y2037862D01*
X6711279D01*
X6756450Y1992692D01*
X6755758Y1989215D01*
X6734057Y1982632D01*
X6707970Y2008719D01*
X6698047Y2015350D01*
X6686341Y2017678D01*
X6686340Y2017678D01*
X5482736D01*
X5208479Y2291934D01*
X5216133Y2310412D01*
X5311633D01*
X5575224Y2046822D01*
D02*
G37*
G36*
X4833320Y1584765D02*
X4843244Y1578135D01*
X4854949Y1575806D01*
X4854950Y1575806D01*
X4919521D01*
X4937817Y1571694D01*
Y1436089D01*
X5138798D01*
Y1473304D01*
X5237080D01*
Y1376588D01*
X4676562D01*
X4521588Y1531562D01*
Y1718809D01*
X4541588Y1732173D01*
X4546054Y1730323D01*
X4565946D01*
X4584323Y1737935D01*
X4598388Y1752000D01*
X4606000Y1770377D01*
Y1783801D01*
X4624715Y1793370D01*
X4833320Y1584765D01*
D02*
G37*
G36*
X6577735Y1845108D02*
X6577735Y1845108D01*
X6580508Y1843255D01*
X6628617Y1795146D01*
Y1584615D01*
X6617259Y1578412D01*
X6608617Y1575331D01*
X6591946Y1582236D01*
X6572054D01*
X6553677Y1574624D01*
X6553171Y1574118D01*
X6460750D01*
Y1580736D01*
X6268250D01*
Y1574118D01*
X6179494D01*
X6176981Y1573618D01*
X6127705D01*
X6123272Y1572737D01*
X6015205D01*
Y1437737D01*
X5997653Y1431824D01*
X5699185D01*
X5690901Y1451824D01*
X5989883Y1750806D01*
X6268250D01*
Y1729736D01*
X6460750D01*
Y1834736D01*
X6460750D01*
X6462169Y1854149D01*
X6568694D01*
X6577735Y1845108D01*
D02*
G37*
G36*
X6268250Y1834736D02*
X6268250D01*
Y1811982D01*
X5977213D01*
X5965508Y1809653D01*
X5955584Y1803023D01*
X5529149Y1376588D01*
X5437079D01*
Y1549000D01*
X5237080D01*
Y1534480D01*
X5138798D01*
Y1571694D01*
X5157095Y1575806D01*
X5637656D01*
X5637657Y1575806D01*
X5649363Y1578135D01*
X5659286Y1584765D01*
X5928670Y1854149D01*
X6266831D01*
X6268250Y1834736D01*
D02*
G37*
D10*
X7351000Y2645180D02*
D03*
X7561000Y1591736D02*
D03*
Y2580180D02*
D03*
X7351000Y2515180D02*
D03*
Y1656737D02*
D03*
Y1526736D02*
D03*
D11*
X7522256Y2227070D02*
D03*
X4461408Y4626500D02*
D03*
X1396267Y5085188D02*
D03*
X7396857Y2227070D02*
D03*
X3510788Y4025396D02*
D03*
X4586807Y4626500D02*
D03*
X4461408Y4407940D02*
D03*
X4586807D02*
D03*
X7396857Y1153526D02*
D03*
X7522256D02*
D03*
X3385389Y4025396D02*
D03*
X1521666Y5085188D02*
D03*
D12*
X6906931Y2645303D02*
D03*
X6906839Y3372501D02*
D03*
X6364500Y1655236D02*
D03*
X6364531Y2645303D02*
D03*
X6906839Y3626501D02*
D03*
Y3499501D02*
D03*
X6906931Y2518303D02*
D03*
Y2772303D02*
D03*
Y2391303D02*
D03*
X6364531D02*
D03*
Y2772303D02*
D03*
Y2518303D02*
D03*
X6906839Y3753501D02*
D03*
X6364439Y3372501D02*
D03*
Y3753501D02*
D03*
Y3499501D02*
D03*
Y3626501D02*
D03*
X6364500Y1528236D02*
D03*
Y1782236D02*
D03*
Y1401236D02*
D03*
X6906900D02*
D03*
Y1528236D02*
D03*
Y1655236D02*
D03*
Y1782236D02*
D03*
D13*
X1788000Y1522105D02*
D03*
Y3719105D02*
D03*
D14*
Y2620605D02*
D03*
D15*
X2487809Y3775568D02*
D03*
X7311934Y3560000D02*
D03*
X7511934Y3655000D02*
D03*
Y3465000D02*
D03*
X2687809Y3680568D02*
D03*
X2487809Y3585568D02*
D03*
D16*
X2758722Y3151160D02*
D03*
X3713589Y4495788D02*
D03*
X6105204Y1690236D02*
D03*
Y2676737D02*
D03*
X2758722Y2966160D02*
D03*
X3713589Y4680787D02*
D03*
X6105204Y1505237D02*
D03*
Y2491737D02*
D03*
D17*
X3409223Y2350064D02*
D03*
X2925331Y2481508D02*
D03*
X2687809Y1806274D02*
D03*
X3117089Y2667151D02*
D03*
X3321723Y2666000D02*
D03*
X3409223Y2500064D02*
D03*
X2925331Y2331508D02*
D03*
X3117089Y2817152D02*
D03*
X3321723Y2816000D02*
D03*
X2687809Y1956274D02*
D03*
D18*
X3718590Y3372615D02*
D03*
X3095946D02*
D03*
X3718590Y3202615D02*
D03*
X3095946D02*
D03*
D19*
X3233494Y2367330D02*
D03*
X3098494Y2472330D02*
D03*
Y2367330D02*
D03*
X3233494Y2472330D02*
D03*
D20*
X4933000Y4403000D02*
D03*
X4838000Y4613000D02*
D03*
X4743000Y4403000D02*
D03*
D21*
X2098000Y4584378D02*
D03*
D22*
X3408364Y1696394D02*
D03*
X2883364D02*
D03*
Y2016394D02*
D03*
X3408364D02*
D03*
D23*
X2836024Y4024287D02*
D03*
X3151154D02*
D03*
D24*
X7169204Y1275838D02*
D03*
Y1912436D02*
D03*
X7145730Y2264977D02*
D03*
X7145731Y2897518D02*
D03*
X1965938Y1096699D02*
D03*
X2465938D02*
D03*
X2965938D02*
D03*
X7085124Y3622699D02*
D03*
Y3497301D02*
D03*
X7169204Y1401236D02*
D03*
Y1787037D02*
D03*
X7145730Y2390376D02*
D03*
X7145731Y2772119D02*
D03*
X1965938Y971301D02*
D03*
X2465938D02*
D03*
X2965938D02*
D03*
D25*
X3992200Y2541000D02*
D03*
Y2591000D02*
D03*
Y2641000D02*
D03*
Y2391000D02*
D03*
X4839800Y2641000D02*
D03*
Y2841000D02*
D03*
Y2791000D02*
D03*
Y2741000D02*
D03*
Y2691000D02*
D03*
Y2591000D02*
D03*
Y2541000D02*
D03*
Y2491000D02*
D03*
Y2441000D02*
D03*
Y2391000D02*
D03*
Y2341000D02*
D03*
Y2291000D02*
D03*
X3992200D02*
D03*
Y2341000D02*
D03*
Y2441000D02*
D03*
Y2491000D02*
D03*
Y2691000D02*
D03*
Y2741000D02*
D03*
Y2791000D02*
D03*
Y2841000D02*
D03*
D26*
X5337079Y1814000D02*
D03*
Y1454000D02*
D03*
D27*
X3675589Y5063147D02*
D03*
X2584500D02*
D03*
X3490589D02*
D03*
X2769500D02*
D03*
D28*
X1457073Y4433731D02*
D03*
X1607073D02*
D03*
D29*
X3264223Y3252405D02*
D03*
X3514223D02*
D03*
D30*
X4291000Y2142200D02*
D03*
X4241000D02*
D03*
X4191000D02*
D03*
X4391000D02*
D03*
X4341000D02*
D03*
X4141000Y2989800D02*
D03*
X4191000D02*
D03*
X4241000D02*
D03*
X4291000D02*
D03*
X4341000D02*
D03*
X4391000D02*
D03*
X4441000D02*
D03*
X4491000D02*
D03*
X4541000D02*
D03*
X4591000D02*
D03*
X4641000D02*
D03*
X4691000D02*
D03*
Y2142200D02*
D03*
X4641000D02*
D03*
X4591000D02*
D03*
X4541000D02*
D03*
X4491000D02*
D03*
X4441000D02*
D03*
X4141000D02*
D03*
D31*
X3351089Y4853287D02*
D03*
X3224089D02*
D03*
Y4323288D02*
D03*
X3351089D02*
D03*
X3478089Y4853287D02*
D03*
X3097089D02*
D03*
Y4323288D02*
D03*
X3478089D02*
D03*
D32*
X4257262Y5084657D02*
D03*
Y4849657D02*
D03*
D33*
X1456635Y4777911D02*
D03*
D34*
X2807000Y4355879D02*
D03*
Y4812878D02*
D03*
D35*
X5038308Y1503892D02*
D03*
Y1764108D02*
D03*
D36*
X1653485Y4699171D02*
D03*
Y4765211D02*
D03*
Y4831251D02*
D03*
Y4897291D02*
D03*
D37*
X7351000Y2645303D02*
X7392589D01*
X7488054Y2740767D01*
X7898344D01*
X6906931Y2645303D02*
X7351000D01*
X7411934Y2271966D02*
Y2518303D01*
X6906931D02*
X7411934D01*
X7845813Y2438237D02*
X7898344Y2490767D01*
X7891495Y2233919D02*
X7898344Y2240767D01*
X7558841Y2233919D02*
X7891495D01*
X7551992Y2227070D02*
X7558841Y2233919D01*
X3116991Y2817249D02*
X3117089Y2817152D01*
X2733881Y2817249D02*
X3116991D01*
X2733783Y2817347D02*
X2733881Y2817249D01*
X1351895Y1522105D02*
X1788000D01*
X1294000Y1580000D02*
X1351895Y1522105D01*
X1294000Y1580000D02*
Y3611276D01*
X1458292Y3775568D01*
X2487809D01*
X7428408Y1692000D02*
X7851356D01*
X7877141Y1666215D02*
X7901495D01*
X7393145Y1656737D02*
X7428408Y1692000D01*
X7851356D02*
X7877141Y1666215D01*
X7362293Y1656737D02*
X7393145D01*
X7396857Y2227070D02*
X7409765Y2239977D01*
Y2269797D02*
X7411934Y2271966D01*
X7409765Y2239977D02*
Y2269797D01*
X7895151Y1159871D02*
X7901495Y1166215D01*
X7528601Y1159871D02*
X7895151D01*
X7522256Y1153526D02*
X7528601Y1159871D01*
X7402806Y1416215D02*
X7901495D01*
X7351000Y1364410D02*
X7402806Y1416215D01*
X7351000Y1364410D02*
Y1526736D01*
X7396857Y1153526D02*
Y1156226D01*
X7351000Y1202083D02*
X7396857Y1156226D01*
X7351000Y1202083D02*
Y1364410D01*
X7176860Y3627000D02*
X7204860Y3655000D01*
X7513500D01*
X7513500Y3655000D01*
X6906931Y3627000D02*
X7085124D01*
X7898344Y3813500D02*
X7913844Y3798000D01*
X7882844D02*
X7926000D01*
X7739844Y3655000D02*
X7882844Y3798000D01*
X7513500Y3655000D02*
X7739844D01*
X7085124Y3627000D02*
X7176860D01*
X7169860Y3500000D02*
X7204860Y3465000D01*
X7513500D01*
X6906931Y3500000D02*
X7085124D01*
X7513500Y3465000D02*
X7791784D01*
X7890284Y3563500D01*
X7898344D01*
X7085124Y3500000D02*
X7169860D01*
X7492000Y2438237D02*
X7845813D01*
X7411934Y2518303D02*
X7492000Y2438237D01*
X2613790Y2817347D02*
X2733783D01*
X2584500Y2846636D02*
Y3734501D01*
X2654000Y3804000D01*
X2584500Y2846636D02*
X2613790Y2817347D01*
X6868126Y4163212D02*
X7106232Y3925106D01*
X6179494Y1528236D02*
X6364500D01*
X6359214Y4163212D02*
X6574445Y3947981D01*
X6369379Y2523151D02*
X6574445D01*
X6364531Y2518303D02*
X6369379Y2523151D01*
X6179494Y2518303D02*
X6364531D01*
X6579294Y1532236D02*
X6582000D01*
X6575294Y1528236D02*
X6579294Y1532236D01*
X6364500Y1528236D02*
X6575294D01*
X6359214Y4163212D02*
X6868126D01*
X2654000Y3804000D02*
X3596000D01*
X3696000Y3904000D01*
Y4074000D01*
X3606788Y4163212D02*
X3696000Y4074000D01*
X3481498Y4163212D02*
X3606788D01*
X4842894D01*
X3510788Y4028095D02*
Y4133923D01*
X6105204Y2491737D02*
X6127705Y2514237D01*
X6175428D01*
X6179494Y2518303D01*
X4842894Y4163212D02*
X6359214D01*
X6127705Y1527737D02*
X6178994D01*
X6105204Y1505237D02*
X6127705Y1527737D01*
X6178994D02*
X6179494Y1528236D01*
X6906931Y3754000D02*
X7076943D01*
X7106232Y3783290D01*
Y3925106D01*
X4842894Y4163212D02*
X5036500Y3969606D01*
X3380378Y4163212D02*
X3481498D01*
X5036500Y3781500D02*
Y3969606D01*
X3351089Y4323288D02*
Y4678000D01*
Y4192502D02*
Y4323288D01*
X3481498Y4163212D02*
X3510788Y4133923D01*
X3351089Y4192502D02*
X3380378Y4163212D01*
X3351089Y4678000D02*
Y4853287D01*
Y4678000D02*
X3710802D01*
X3713589Y4680787D01*
X3224089Y4678000D02*
X3351089D01*
X3224089D02*
Y4853287D01*
Y4323288D02*
Y4678000D01*
X4251761Y5302000D02*
X4257262Y5296499D01*
Y5084657D02*
Y5296499D01*
X4911355Y4849657D02*
X4938000Y4823012D01*
X4257262Y4849657D02*
X4911355D01*
X3130045Y5156045D02*
X3134000Y5160000D01*
X3130045Y5063147D02*
Y5156045D01*
Y5063147D02*
X3490589D01*
X6953839Y2390840D02*
X7145267D01*
X7145639Y2772211D02*
X7145731Y2772119D01*
X6907023Y2772211D02*
X7145639D01*
X6906931Y2772303D02*
X6907023Y2772211D01*
X7145267Y2390840D02*
X7145730Y2390376D01*
X7166804Y1784637D02*
X7169204Y1787037D01*
X6932805Y1784637D02*
X7166804D01*
X6930405Y1782236D02*
X6932805Y1784637D01*
X6930405Y1401236D02*
X7169204D01*
X7310147Y1521737D02*
X7351000D01*
X7303647Y1528236D02*
X7310147Y1521737D01*
X6930405Y1528236D02*
X7303647D01*
X6930405Y1655236D02*
X7362293D01*
X3152262Y4025396D02*
X3385389D01*
X3151154Y4024287D02*
X3152262Y4025396D01*
X3097089Y4680787D02*
Y4853287D01*
X3010719Y4594418D02*
X3097089Y4680787D01*
X3010719Y4053577D02*
Y4594418D01*
Y4053577D02*
X3040009Y4024287D01*
X3151154D01*
X2611290Y4350168D02*
X2801289D01*
X2477122Y4216000D02*
X2611290Y4350168D01*
X2801289D02*
X2807000Y4355879D01*
X1666860Y4216000D02*
X2477122D01*
X1607073Y4275787D02*
X1666860Y4216000D01*
X1607073Y4275787D02*
Y4433731D01*
X1653485Y4765211D02*
Y4807656D01*
Y4699171D02*
Y4765211D01*
X2769500Y5063147D02*
X3130045D01*
X3483089Y5055646D02*
X3490589Y5063147D01*
X3483089Y4858287D02*
Y5055646D01*
X3478089Y4853287D02*
X3483089Y4858287D01*
X2769500Y4850378D02*
X2807000Y4812878D01*
X2769500Y4850378D02*
Y5063147D01*
X1653485Y4544525D02*
Y4699171D01*
X1629573Y4520613D02*
X1653485Y4544525D01*
X1607073Y4473731D02*
X1629573Y4496231D01*
X1607073Y4433731D02*
Y4473731D01*
X1629573Y4496231D02*
Y4520613D01*
X1521666Y5085188D02*
X1684744D01*
X1750777Y5019155D01*
Y4925860D02*
Y5019155D01*
X1721488Y4896571D02*
X1750777Y4925860D01*
X1654205Y4896571D02*
X1721488D01*
X1653485Y4897291D02*
X1654205Y4896571D01*
D38*
X3104351Y2817347D02*
X3411667D01*
X2830120Y2966160D02*
X3363934D01*
X3639094Y2691000D01*
X3992200D01*
X3411667Y2817347D02*
X3588013Y2641000D01*
X2758722Y2966160D02*
X2830120D01*
X2642809Y2977875D02*
X2654524Y2966160D01*
X2758722D01*
X2642809Y2977875D02*
Y3635568D01*
X3017270Y2481531D02*
X3095946D01*
X2925354D02*
X3095946D01*
X2925331Y2481508D02*
X2925354Y2481531D01*
X2925331Y2481992D02*
X3017270D01*
X6686341Y1987091D02*
X6749792Y1923640D01*
Y1465820D02*
X6814375Y1401236D01*
X6749792Y1465820D02*
Y1923640D01*
X6699205Y1405903D02*
Y1824384D01*
X6600284Y1866736D02*
X6659205Y1807816D01*
X6219749Y983016D02*
X6659205Y1422472D01*
Y1807816D01*
X6598853Y1924736D02*
X6699205Y1824384D01*
X6226695Y933393D02*
X6699205Y1405903D01*
X5596853Y2068450D02*
X6723949D01*
X6797875Y1994524D01*
Y1793952D02*
Y1994524D01*
X5556677Y2441000D02*
X5770606Y2227070D01*
X6607731D02*
X6750588Y2369927D01*
X5770606Y2227070D02*
X6607731D01*
X5429223Y2391000D02*
X5669492Y2150731D01*
X6713730D02*
X6903518Y2340519D01*
X5669492Y2150731D02*
X6713730D01*
X5324303Y2341000D02*
X5596853Y2068450D01*
X5166156Y2291000D02*
X5470066Y1987091D01*
X6686341D01*
X6750588Y2724787D02*
X6798104Y2772303D01*
X6750588Y2369927D02*
Y2724787D01*
X6925555Y2390840D02*
X6953839D01*
X6903518Y2340519D02*
Y2368803D01*
X6925555Y2390840D01*
X4839800Y2291000D02*
X5166156D01*
X4839800Y2391000D02*
X5429223D01*
X4839800Y2441000D02*
X5556677D01*
X4839800Y2491000D02*
X5706250D01*
X5890180Y2307070D02*
X6553499D01*
X5706250Y2491000D02*
X5890180Y2307070D01*
X4839800Y2691000D02*
X5721061D01*
X6020758Y2391303D02*
X6364531D01*
X5721061Y2691000D02*
X6020758Y2391303D01*
X4839800Y2741000D02*
X5208648D01*
X5239951Y2772303D02*
X6364531D01*
X5208648Y2741000D02*
X5239951Y2772303D01*
X4141000Y1920490D02*
Y2142200D01*
X4129284Y1908774D02*
X4141000Y1920490D01*
X3598000Y1894000D02*
X3612775Y1908774D01*
X4129284D01*
X3598000Y1598878D02*
Y1894000D01*
X2928219Y2334396D02*
X3100454D01*
X3249713Y2185137D01*
X2925331Y2331508D02*
X2926805Y2332981D01*
X3067560Y2336396D02*
X3098494Y2367330D01*
X3687727Y1842499D02*
X3699848Y1854620D01*
X4156267D01*
X4191000Y1889353D01*
Y2142200D01*
X3806000Y1752000D02*
X3865911Y1811911D01*
X4193230D01*
X3775628Y2741000D02*
X3992200D01*
X3309224Y3179120D02*
X3337508D01*
X3264223Y3224121D02*
Y3252405D01*
Y3224121D02*
X3309224Y3179120D01*
X3337508D02*
X3775628Y2741000D01*
X3219223Y3202615D02*
X3264223D01*
Y3252405D01*
X3095946Y3202615D02*
X3105124D01*
X3219223D01*
X3533423Y3225115D02*
Y3233205D01*
X3541513Y3225115D01*
X3723089D01*
X3514223Y3252405D02*
X3533423Y3233205D01*
Y3082091D02*
X3824514Y2791000D01*
X3533423Y3082091D02*
Y3225115D01*
X3824514Y2791000D02*
X3992200D01*
X3514223Y3252405D02*
X3533423Y3233205D01*
X3264223Y3247615D02*
Y3252405D01*
X3219223Y3202615D02*
X3264223Y3247615D01*
X2652809Y3650568D02*
X2682809Y3680568D01*
X2642809Y3635568D02*
X2652809Y3645568D01*
X2682809Y3680568D02*
X2687809D01*
X2652809Y3645568D02*
Y3650568D01*
X3638014Y2591000D02*
X3992200D01*
X3588013Y2641000D02*
X3638014Y2591000D01*
X3588013Y2641000D02*
X3992200D01*
X3249713Y2185137D02*
X3431864D01*
X3381489Y2472330D02*
X3409223Y2500064D01*
X3233494Y2472330D02*
X3381489D01*
X2368696Y2543730D02*
X2375938Y2550972D01*
X2368696Y1996394D02*
Y2543730D01*
X2265435Y2629116D02*
X2292320Y2656000D01*
X2265435Y1996394D02*
Y2629116D01*
X2145938Y2325436D02*
X2151796Y2331294D01*
X2145938Y2014170D02*
Y2325436D01*
X2673961Y1968894D02*
X2693961D01*
X4541000Y1806147D02*
X4556000Y1791147D01*
X4541000Y1806147D02*
Y2142200D01*
X4556000Y1780323D02*
Y1791147D01*
X4591000Y1870343D02*
Y2142200D01*
Y1870343D02*
X4854949Y1606394D01*
X3431864Y2185137D02*
X3687727Y2441000D01*
X2736589Y1583892D02*
X3469877D01*
X1965938Y971301D02*
X2123998D01*
X2736589Y1583892D01*
X4291000Y1822000D02*
Y2142200D01*
X4221000Y1752000D02*
X4291000Y1822000D01*
X3894000Y1752000D02*
X4221000D01*
X3776000Y1634000D02*
X3894000Y1752000D01*
X4241000Y1859681D02*
Y2142200D01*
X4193230Y1811911D02*
X4241000Y1859681D01*
X4391000Y1758892D02*
Y2142200D01*
X4136000Y1503892D02*
X4391000Y1758892D01*
X3746000Y1503892D02*
X4136000D01*
X4341000Y1781394D02*
Y2142200D01*
X4206000Y1646394D02*
X4341000Y1781394D01*
X3933450Y1646394D02*
X4206000D01*
X3718590Y2391000D02*
X3992200D01*
X3475864Y2148274D02*
X3718590Y2391000D01*
X3475864Y2056394D02*
Y2148274D01*
X3435864Y2016394D02*
X3475864Y2056394D01*
X3408364Y2016394D02*
X3435864D01*
X2693961Y1968894D02*
X2741461Y2016394D01*
X2883364D01*
X3143849D01*
X3408364D01*
X3143849Y1947976D02*
Y2016394D01*
X3558000Y1615447D02*
Y2069524D01*
X3779476Y2291000D02*
X3992200D01*
X3558000Y2069524D02*
X3779476Y2291000D01*
X3518000Y1632015D02*
Y2105386D01*
X3753614Y2341000D02*
X3992200D01*
X3518000Y2105386D02*
X3753614Y2341000D01*
X3992200Y3754000D02*
X3996000D01*
X4141000Y3609000D01*
X4126000Y3680568D02*
Y3904000D01*
Y3680568D02*
X4191000Y3615568D01*
Y2989800D02*
Y3615568D01*
X4141000Y2989800D02*
Y3609000D01*
X5239123Y3225703D02*
X5386420Y3373000D01*
X6364531D01*
X4591000Y3225703D02*
X5239123D01*
X4541000Y3175703D02*
X4591000Y3225703D01*
X4541000Y2989800D02*
Y3175703D01*
X5676061Y3754000D02*
X6364531D01*
X5198220Y3276159D02*
X5676061Y3754000D01*
X4576000Y3276159D02*
X5198220D01*
X4491000Y3191159D02*
X4576000Y3276159D01*
X4491000Y2989800D02*
Y3191159D01*
X5151500Y2791000D02*
X5216500Y2856000D01*
X4839800Y2791000D02*
X5151500D01*
X4985000Y2841000D02*
X5086000Y2942000D01*
X4839800Y2841000D02*
X4985000D01*
X4296000Y743016D02*
X4486377Y933393D01*
X6226695D01*
X4256000Y983016D02*
X6219749D01*
X5899431Y1924736D02*
X6598853D01*
X6797875Y1793952D02*
X6809591Y1782236D01*
X6930405D01*
X5637657Y1606394D02*
X5916000Y1884736D01*
X6581364D01*
X4854949Y1606394D02*
X5637657D01*
X4871517Y1646394D02*
X5621089D01*
X5899431Y1924736D01*
X4641000Y1876911D02*
Y2142200D01*
Y1876911D02*
X4871517Y1646394D01*
X4296000Y550000D02*
Y743016D01*
X6599364Y1866736D02*
X6600284D01*
X6581364Y1884736D02*
X6599364Y1866736D01*
X4691000Y1921394D02*
Y2142200D01*
X4848286Y1764108D02*
X5038308D01*
X4691000Y1921394D02*
X4848286Y1764108D01*
X5541819Y1346000D02*
X5977213Y1781394D01*
X6387162D01*
X4046000Y550000D02*
Y773016D01*
X4256000Y983016D01*
X6814375Y1401236D02*
X6930405D01*
X4839800Y2341000D02*
X5324303D01*
X6659205Y2412775D02*
Y3464795D01*
X6553499Y2307070D02*
X6659205Y2412775D01*
X6798104Y2772303D02*
X6906931D01*
X6624000Y3500000D02*
X6659205Y3464795D01*
X6364531Y3500000D02*
X6624000D01*
X6497000Y3627000D02*
X6624000Y3500000D01*
X6364531Y3627000D02*
X6497000D01*
X5576567Y1306000D02*
X5671803Y1401236D01*
X6388004D01*
X4621237Y1306000D02*
X5576567D01*
X4663892Y1346000D02*
X5541819D01*
X6387162Y1781394D02*
X6388004Y1782236D01*
X4491000Y1518892D02*
X4663892Y1346000D01*
X4491000Y1518892D02*
Y2142200D01*
X4441000Y1486237D02*
X4621237Y1306000D01*
X4441000Y1486237D02*
Y2142200D01*
X4453468Y4400000D02*
X4461408Y4407940D01*
X4316000Y4400000D02*
X4453468D01*
X5287188Y1503892D02*
X5337079Y1454000D01*
X5038308Y1503892D02*
X5287188D01*
X3106349Y1352411D02*
X3257830Y1503892D01*
X3486445Y1543892D02*
X3558000Y1615447D01*
X2590938Y1346938D02*
X2787892Y1543892D01*
X3469877Y1583892D02*
X3518000Y1632015D01*
X3503014Y1503892D02*
X3598000Y1598878D01*
X2787892Y1543892D02*
X3486445D01*
X3257830Y1503892D02*
X3503014D01*
X2965938Y968601D02*
X3094633D01*
X3106349Y980317D02*
Y1352411D01*
X3094633Y968601D02*
X3106349Y980317D01*
X2965938Y550000D02*
Y968601D01*
X2465938Y971301D02*
X2579222D01*
X2590938Y983016D01*
Y1346938D01*
X2465938Y550000D02*
Y971301D01*
X1965938Y550000D02*
Y971301D01*
X3475159Y2491000D02*
X3992200D01*
X3687727Y2441000D02*
X3992200D01*
D39*
X4838000Y4613000D02*
Y4723012D01*
X4938000Y4823012D01*
X4251761Y5302000D02*
X4417512D01*
X4938000Y4823012D02*
Y5031512D01*
X4586807Y4407940D02*
Y4626500D01*
Y4407940D02*
X4738060D01*
X4743000Y4403000D01*
X4911500Y5058012D02*
X4938000Y5031512D01*
X576500Y4447000D02*
X907411Y4777911D01*
X1431500Y5302000D02*
X4251761D01*
X907411Y4777911D02*
X1431500Y5302000D01*
X4417512D02*
X4661500Y5058012D01*
X907411Y4777911D02*
X1456635D01*
D40*
X7898344Y2490767D02*
D03*
Y2740767D02*
D03*
X7901495Y1416215D02*
D03*
Y1666215D02*
D03*
X7898344Y3563500D02*
D03*
Y3813500D02*
D03*
X4546000Y550000D02*
D03*
X3215938D02*
D03*
X2715938D02*
D03*
X2215938D02*
D03*
X5036500Y3781500D02*
D03*
X4286500D02*
D03*
X2965938Y550000D02*
D03*
X2465938D02*
D03*
X6166000Y540500D02*
D03*
X5916000D02*
D03*
X4796000Y550000D02*
D03*
X4296000D02*
D03*
X4786500Y3781500D02*
D03*
X4536500D02*
D03*
D41*
X7898344Y2240767D02*
D03*
X7901495Y1166215D02*
D03*
X7898344Y3313500D02*
D03*
D42*
X4556000Y1640742D02*
D03*
X3002293Y2899267D02*
D03*
X6506682Y1775719D02*
D03*
Y1660789D02*
D03*
X5904151Y1580736D02*
D03*
X5859997Y1505237D02*
D03*
X3254088Y2282151D02*
D03*
X3056601Y2550588D02*
D03*
X2477787Y1746394D02*
D03*
X3687727Y1842499D02*
D03*
X2733783Y2817347D02*
D03*
X2375938Y2550972D02*
D03*
X2368696Y1996394D02*
D03*
X2292320Y2656000D02*
D03*
X2151796Y2331294D02*
D03*
X4556000Y1780323D02*
D03*
X3776000Y1634000D02*
D03*
X2145938Y2014170D02*
D03*
X3806000Y1752000D02*
D03*
X2265435Y1996394D02*
D03*
X3746000Y1503892D02*
D03*
X3933450Y1646394D02*
D03*
X6574445Y3947981D02*
D03*
Y2523151D02*
D03*
X6582000Y1532236D02*
D03*
X3143849Y1947976D02*
D03*
X3992200Y3754000D02*
D03*
X4126000Y3904000D02*
D03*
X5216500Y2856000D02*
D03*
X5086000Y2942000D02*
D03*
X4316000Y4400000D02*
D03*
D43*
X576500Y4197000D02*
D03*
X4661500Y5058012D02*
D03*
D44*
X5666000Y540500D02*
D03*
X5286500Y3781500D02*
D03*
X1965938Y550000D02*
D03*
X4046000D02*
D03*
D45*
X1453696Y2857151D02*
D03*
Y2057151D02*
D03*
D46*
X8218000Y444000D02*
D03*
Y5118000D02*
D03*
X431521Y5115359D02*
D03*
X432000Y444000D02*
D03*
D47*
X3127088Y5160000D02*
D03*
D48*
X1805938Y350000D02*
D03*
X5446500Y3981500D02*
D03*
D49*
X576500Y4447000D02*
D03*
D50*
X4911500Y5058012D02*
D03*
%TF.MD5,a2de7b7651d01bdddc4e9737a90b21a6*%
M02*
