%TF.GenerationSoftware,Altium Limited,Altium Designer,25.6.2 (33)*%
G04 Layer_Color=8388736*
%FSLAX45Y45*%
%MOMM*%
%TF.SameCoordinates,68E199BB-630F-42D4-9956-741831051F46*%
%TF.FilePolarity,Negative*%
%TF.FileFunction,Soldermask,Top*%
%TF.Part,Single*%
G01*
G75*
%TA.AperFunction,SMDPad,CuDef*%
%ADD10R,1.13504X1.06213*%
%ADD12R,0.81213X0.75814*%
%ADD13R,0.75814X0.81213*%
%ADD18R,1.40000X1.20000*%
%ADD19R,6.20000X5.80000*%
%ADD20R,1.55000X1.00000*%
%ADD21R,1.35490X1.85822*%
%ADD27R,1.60000X1.50000*%
%ADD28R,1.40000X0.95000*%
%ADD29R,0.95000X1.40000*%
%ADD30R,0.95000X1.35000*%
%ADD31R,1.35000X0.95000*%
%ADD33C,1.50876*%
%ADD34R,0.75000X1.40000*%
%ADD35R,0.60000X1.40000*%
%ADD36R,3.00000X1.60000*%
%ADD37R,1.60981X0.95606*%
%ADD38R,0.99060X0.40640*%
%TA.AperFunction,ComponentPad*%
%ADD46C,1.10000*%
%ADD47C,1.40000*%
%ADD48R,1.40000X1.40000*%
%ADD49R,1.55000X1.55000*%
%ADD50C,1.55000*%
%ADD51R,1.55000X1.55000*%
%ADD52R,1.40000X1.40000*%
%TA.AperFunction,SMDPad,CuDef*%
%ADD57R,0.70320X1.30320*%
%ADD58R,0.80320X1.50320*%
%ADD59R,1.67820X0.50320*%
%ADD60R,1.25320X0.70320*%
%ADD61R,1.60320X1.20320*%
%TA.AperFunction,ConnectorPad*%
%ADD62R,1.80320X0.90320*%
%ADD63R,1.80320X1.70320*%
%ADD64R,2.40320X1.40320*%
%ADD65R,2.00320X1.40320*%
%TA.AperFunction,SMDPad,CuDef*%
%ADD66R,1.72820X0.85320*%
%ADD67R,1.05320X0.95320*%
%ADD68R,0.50320X1.67820*%
%TA.AperFunction,ViaPad*%
%ADD69C,4.70320*%
%TA.AperFunction,ComponentPad*%
%ADD70C,0.70320*%
G36*
X1393135Y4909991D02*
X1540455D01*
Y4686471D01*
X1393135D01*
Y4678851D01*
X1316935D01*
Y4719491D01*
X1367735D01*
Y4744891D01*
X1316935D01*
Y4785531D01*
X1367735D01*
Y4810931D01*
X1316935D01*
Y4851571D01*
X1367735D01*
Y4876971D01*
X1316935D01*
Y4917611D01*
X1393135D01*
Y4909991D01*
D02*
G37*
D10*
X1811033Y3252000D02*
D03*
X1974112D02*
D03*
Y2374347D02*
D03*
X1811033D02*
D03*
X1974112Y2594347D02*
D03*
X1811033D02*
D03*
X1974112Y2814347D02*
D03*
X1811033D02*
D03*
X1974112Y3034347D02*
D03*
X1811033D02*
D03*
D12*
X7085124Y3622699D02*
D03*
Y3497301D02*
D03*
X7169204Y1275838D02*
D03*
Y1912436D02*
D03*
X7145730Y2264977D02*
D03*
X7145731Y2897518D02*
D03*
X1965938Y1096699D02*
D03*
X2465938D02*
D03*
X2965938D02*
D03*
X7169204Y1531165D02*
D03*
Y1656564D02*
D03*
Y1401236D02*
D03*
Y1787037D02*
D03*
X7145730Y2390376D02*
D03*
X7145731Y2772119D02*
D03*
X1965938Y971301D02*
D03*
X2465938D02*
D03*
X7146839Y2642880D02*
D03*
Y2517481D02*
D03*
X2965938Y971301D02*
D03*
D13*
X4461408Y4626500D02*
D03*
X4586807D02*
D03*
X4461408Y4407940D02*
D03*
X4586807D02*
D03*
X1396267Y5085188D02*
D03*
X3385389Y4025396D02*
D03*
X3510788D02*
D03*
X1521666Y5085188D02*
D03*
D18*
X2900719Y2445137D02*
D03*
X3120719Y2275137D02*
D03*
Y2445137D02*
D03*
X2900719Y2275137D02*
D03*
D19*
X2098000Y4584378D02*
D03*
D20*
X3408364Y1696394D02*
D03*
X2883364D02*
D03*
X3408364Y2016394D02*
D03*
X2883364D02*
D03*
D21*
X2836024Y4024287D02*
D03*
X3151154D02*
D03*
D27*
X5337079Y1814000D02*
D03*
Y1454000D02*
D03*
D28*
X3713589Y4495788D02*
D03*
X6105204Y1690236D02*
D03*
Y2676737D02*
D03*
X3713589Y4680787D02*
D03*
X6105204Y1505237D02*
D03*
Y2491737D02*
D03*
D29*
X3675589Y5063147D02*
D03*
X2584500D02*
D03*
X6721339Y3980000D02*
D03*
X3490589Y5063147D02*
D03*
X2769500D02*
D03*
X6906339Y3980000D02*
D03*
D30*
X1457073Y4433731D02*
D03*
X1607073D02*
D03*
D31*
X2673961Y1818894D02*
D03*
X2889851Y2667347D02*
D03*
X3104351D02*
D03*
X2800864Y3273203D02*
D03*
X3336173Y3276159D02*
D03*
X2673961Y1968894D02*
D03*
X2889851Y2817347D02*
D03*
X2800864Y3123203D02*
D03*
X3336173Y3126159D02*
D03*
X3104351Y2817347D02*
D03*
D33*
X1456635Y4777911D02*
D03*
D34*
X2998849Y3123203D02*
D03*
X3143849D02*
D03*
D35*
X3478089Y4853287D02*
D03*
X3351089D02*
D03*
X3224089D02*
D03*
X3097089D02*
D03*
Y4323288D02*
D03*
X3224089D02*
D03*
X3351089D02*
D03*
X3478089D02*
D03*
D36*
X2807000Y4355879D02*
D03*
Y4812878D02*
D03*
D37*
X5038308Y1503892D02*
D03*
Y1764108D02*
D03*
D38*
X1653485Y4699171D02*
D03*
Y4765211D02*
D03*
Y4831251D02*
D03*
Y4897291D02*
D03*
D46*
X1805938Y350000D02*
D03*
X5446500Y3981500D02*
D03*
D47*
X3215938Y550000D02*
D03*
X2965938D02*
D03*
X2715938D02*
D03*
X2465938D02*
D03*
X2215938D02*
D03*
X4546000D02*
D03*
X6166000Y540500D02*
D03*
X5916000D02*
D03*
X4796000Y550000D02*
D03*
X4296000D02*
D03*
X7898344Y3813500D02*
D03*
Y3563500D02*
D03*
X5036500Y3781500D02*
D03*
X4786500D02*
D03*
X4536500D02*
D03*
X4286500D02*
D03*
D48*
X1965938Y550000D02*
D03*
X5666000Y540500D02*
D03*
X5286500Y3781500D02*
D03*
X4046000Y550000D02*
D03*
D49*
X576500Y4447000D02*
D03*
X7898344Y1532236D02*
D03*
Y2438237D02*
D03*
D50*
X576500Y4197000D02*
D03*
X4661500Y5058012D02*
D03*
X7898344Y1782236D02*
D03*
Y2688237D02*
D03*
D51*
X4911500Y5058012D02*
D03*
D52*
X7898344Y3313500D02*
D03*
D57*
X4257262Y5084657D02*
D03*
Y4849657D02*
D03*
D58*
X4838000Y4613000D02*
D03*
X4933000Y4403000D02*
D03*
X4743000D02*
D03*
D59*
X4839800Y2641000D02*
D03*
X3992200Y2541000D02*
D03*
X4839800Y2841000D02*
D03*
Y2791000D02*
D03*
Y2741000D02*
D03*
Y2691000D02*
D03*
Y2591000D02*
D03*
Y2541000D02*
D03*
Y2491000D02*
D03*
Y2441000D02*
D03*
Y2391000D02*
D03*
Y2341000D02*
D03*
Y2291000D02*
D03*
X3992200D02*
D03*
Y2341000D02*
D03*
Y2391000D02*
D03*
Y2441000D02*
D03*
Y2491000D02*
D03*
Y2591000D02*
D03*
Y2641000D02*
D03*
Y2691000D02*
D03*
Y2741000D02*
D03*
Y2791000D02*
D03*
Y2841000D02*
D03*
D60*
X7561000Y1591736D02*
D03*
Y2580180D02*
D03*
X7351000Y1656737D02*
D03*
Y1526736D02*
D03*
Y2645180D02*
D03*
Y2515180D02*
D03*
D61*
X7293500Y3560000D02*
D03*
X7513500Y3465000D02*
D03*
Y3655000D02*
D03*
D62*
X1519892Y2924347D02*
D03*
Y2374347D02*
D03*
Y2484347D02*
D03*
Y2594347D02*
D03*
Y2704347D02*
D03*
Y2814347D02*
D03*
Y3034347D02*
D03*
Y3144347D02*
D03*
Y3254347D02*
D03*
D63*
X1414892Y1914347D02*
D03*
D64*
X459892Y1824347D02*
D03*
Y3374347D02*
D03*
D65*
X1389892D02*
D03*
D66*
X6364500Y1655236D02*
D03*
X6906900Y3373000D02*
D03*
X6364531Y2645303D02*
D03*
X6364500Y1782236D02*
D03*
Y1528236D02*
D03*
Y1401236D02*
D03*
X6906900D02*
D03*
Y1528236D02*
D03*
Y1655236D02*
D03*
Y1782236D02*
D03*
X6364500Y3754000D02*
D03*
Y3627000D02*
D03*
Y3500000D02*
D03*
Y3373000D02*
D03*
X6906900Y3500000D02*
D03*
Y3627000D02*
D03*
Y3754000D02*
D03*
X6364531Y2772303D02*
D03*
Y2518303D02*
D03*
Y2391303D02*
D03*
X6906931D02*
D03*
Y2518303D02*
D03*
Y2645303D02*
D03*
Y2772303D02*
D03*
D67*
X3290719Y2276637D02*
D03*
X2737919Y2408961D02*
D03*
X3290719Y2401637D02*
D03*
X2737919Y2283961D02*
D03*
D68*
X4141000Y2989800D02*
D03*
X4191000D02*
D03*
X4241000D02*
D03*
X4291000D02*
D03*
X4341000D02*
D03*
X4391000D02*
D03*
X4441000D02*
D03*
X4491000D02*
D03*
X4541000D02*
D03*
X4591000D02*
D03*
X4641000D02*
D03*
X4691000D02*
D03*
Y2142200D02*
D03*
X4641000D02*
D03*
X4591000D02*
D03*
X4541000D02*
D03*
X4491000D02*
D03*
X4441000D02*
D03*
X4391000D02*
D03*
X4341000D02*
D03*
X4291000D02*
D03*
X4241000D02*
D03*
X4191000D02*
D03*
X4141000D02*
D03*
D69*
X8218000Y444000D02*
D03*
Y5118000D02*
D03*
X431521Y5115359D02*
D03*
X432000Y444000D02*
D03*
D70*
X419892Y2294347D02*
D03*
Y3094347D02*
D03*
%TF.MD5,ae055541fe197dfa1e44a676d356e953*%
M02*
