%TF.GenerationSoftware,Altium Limited,Altium Designer,25.6.2 (33)*%
G04 Layer_Physical_Order=2*
G04 Layer_Color=16711680*
%FSLAX45Y45*%
%MOMM*%
%TF.SameCoordinates,68E199BB-630F-42D4-9956-741831051F46*%
%TF.FilePolarity,Positive*%
%TF.FileFunction,Copper,L2,Bot,Signal*%
%TF.Part,Single*%
G01*
G75*
%TA.AperFunction,Conductor*%
%ADD40C,0.20000*%
%ADD41C,0.50000*%
%TA.AperFunction,ViaPad*%
%ADD43C,4.50000*%
%ADD44C,0.60000*%
%ADD45C,1.00000*%
%TA.AperFunction,ComponentPad*%
%ADD46C,1.10000*%
%ADD47C,1.40000*%
%ADD48R,1.40000X1.40000*%
%ADD49R,1.55000X1.55000*%
%ADD50C,1.55000*%
%ADD51R,1.55000X1.55000*%
%ADD52R,1.40000X1.40000*%
%ADD53C,0.50000*%
G36*
X8131746Y5528808D02*
X8193832Y5513903D01*
X8252823Y5489468D01*
X8307265Y5456106D01*
X8355817Y5414638D01*
X8397285Y5366085D01*
X8430647Y5311643D01*
X8455082Y5252653D01*
X8463386Y5218063D01*
X8444306Y5211864D01*
X8435116Y5234051D01*
X8408304Y5274178D01*
X8374179Y5308304D01*
X8334051Y5335116D01*
X8289464Y5353585D01*
X8242131Y5363000D01*
X8193870D01*
X8146536Y5353585D01*
X8101949Y5335116D01*
X8061822Y5308304D01*
X8027696Y5274178D01*
X8000884Y5234051D01*
X7982415Y5189464D01*
X7973000Y5142130D01*
Y5093869D01*
X7982415Y5046536D01*
X8000884Y5001949D01*
X8027696Y4961821D01*
X8061822Y4927696D01*
X8101949Y4900884D01*
X8146536Y4882415D01*
X8193870Y4873000D01*
X8242131D01*
X8289464Y4882415D01*
X8334051Y4900884D01*
X8374179Y4927696D01*
X8408304Y4961821D01*
X8435116Y5001949D01*
X8453585Y5046536D01*
X8454408Y5050674D01*
X8474409Y5048708D01*
X8476508Y502738D01*
X8456509Y500764D01*
X8453585Y515464D01*
X8435116Y560051D01*
X8408304Y600178D01*
X8374179Y634304D01*
X8334051Y661116D01*
X8289464Y679585D01*
X8242131Y689000D01*
X8193870D01*
X8146536Y679585D01*
X8101949Y661116D01*
X8061822Y634304D01*
X8027696Y600178D01*
X8000884Y560051D01*
X7982415Y515464D01*
X7973000Y468130D01*
Y419869D01*
X7982415Y372536D01*
X8000884Y327949D01*
X8027696Y287821D01*
X8061822Y253696D01*
X8101949Y226884D01*
X8146536Y208415D01*
X8193870Y199000D01*
X8242131D01*
X8289464Y208415D01*
X8334051Y226884D01*
X8374179Y253696D01*
X8408304Y287821D01*
X8435116Y327949D01*
X8452614Y370193D01*
X8471694Y363993D01*
X8457721Y305791D01*
X8433901Y248284D01*
X8401378Y195211D01*
X8360953Y147879D01*
X8313621Y107454D01*
X8260548Y74931D01*
X8203040Y51111D01*
X8142515Y36580D01*
X8082603Y31865D01*
X8080471Y32289D01*
X433265Y34457D01*
X413267Y34463D01*
X393678Y35455D01*
X353440Y38622D01*
X295087Y52631D01*
X239644Y75596D01*
X188476Y106952D01*
X142843Y145926D01*
X103869Y191559D01*
X72513Y242727D01*
X49548Y298171D01*
X35538Y356524D01*
X30986Y414370D01*
X31379Y416348D01*
X31645Y5098404D01*
X31646Y5118405D01*
X32669Y5137980D01*
X34937Y5172579D01*
X45529Y5225826D01*
X62980Y5277236D01*
X86992Y5325928D01*
X117155Y5371069D01*
X152951Y5411887D01*
X193769Y5447683D01*
X238910Y5477846D01*
X287602Y5501858D01*
X339012Y5519309D01*
X392259Y5529901D01*
X445453Y5533387D01*
X446433Y5533192D01*
X8068092Y5533193D01*
X8070342Y5533641D01*
X8131746Y5528808D01*
D02*
G37*
%LPC*%
G36*
X455652Y5360359D02*
X407391D01*
X360057Y5350944D01*
X315470Y5332475D01*
X275343Y5305663D01*
X241217Y5271537D01*
X214405Y5231410D01*
X195937Y5186823D01*
X186521Y5139489D01*
Y5091228D01*
X195937Y5043895D01*
X214405Y4999308D01*
X241217Y4959180D01*
X275343Y4925055D01*
X315470Y4898243D01*
X360057Y4879774D01*
X407391Y4870359D01*
X455652D01*
X502985Y4879774D01*
X547572Y4898243D01*
X587700Y4925055D01*
X621825Y4959180D01*
X648638Y4999308D01*
X667106Y5043895D01*
X676521Y5091228D01*
Y5139489D01*
X667106Y5186823D01*
X648638Y5231410D01*
X621825Y5271537D01*
X587700Y5305663D01*
X547572Y5332475D01*
X502985Y5350944D01*
X455652Y5360359D01*
D02*
G37*
G36*
X674000Y4544500D02*
X479000D01*
Y4349500D01*
X674000D01*
Y4544500D01*
D02*
G37*
G36*
X4848069Y3916588D02*
X4848068Y3916588D01*
X4571001D01*
X4571000Y3916588D01*
X4559295Y3914259D01*
X4549371Y3907629D01*
X4530582Y3888840D01*
X4523951Y3878916D01*
X4522353Y3870884D01*
X4501761Y3865366D01*
X4481239Y3853518D01*
X4464482Y3836761D01*
X4452633Y3816238D01*
X4446500Y3793349D01*
Y3769651D01*
X4452633Y3746761D01*
X4464482Y3726239D01*
X4481239Y3709482D01*
X4501761Y3697633D01*
X4524651Y3691500D01*
X4548349D01*
X4571239Y3697633D01*
X4591761Y3709482D01*
X4608518Y3726239D01*
X4620366Y3746761D01*
X4626500Y3769651D01*
Y3793349D01*
X4620366Y3816238D01*
X4609296Y3835412D01*
X4610831Y3841240D01*
X4618151Y3855412D01*
X4704849D01*
X4712169Y3841240D01*
X4713704Y3835412D01*
X4702633Y3816238D01*
X4696500Y3793349D01*
Y3769651D01*
X4702633Y3746761D01*
X4714482Y3726239D01*
X4731239Y3709482D01*
X4751761Y3697633D01*
X4774651Y3691500D01*
X4798349D01*
X4821239Y3697633D01*
X4824960Y3699782D01*
X4840913Y3683830D01*
Y3589849D01*
X4840912Y3589847D01*
X4843241Y3578142D01*
X4849871Y3568218D01*
X5055412Y3362678D01*
Y2982123D01*
X5043612Y2970323D01*
X5036000Y2951946D01*
Y2932054D01*
X5043612Y2913677D01*
X5057677Y2899612D01*
X5076054Y2892000D01*
X5095946D01*
X5114323Y2899612D01*
X5128388Y2913677D01*
X5136000Y2932054D01*
Y2951946D01*
X5128388Y2970323D01*
X5116588Y2982123D01*
Y3331939D01*
X5135065Y3339593D01*
X5185912Y3288746D01*
Y2896123D01*
X5174112Y2884323D01*
X5166500Y2865945D01*
Y2846054D01*
X5174112Y2827677D01*
X5188177Y2813612D01*
X5206554Y2806000D01*
X5226445D01*
X5244823Y2813612D01*
X5258888Y2827677D01*
X5266500Y2846054D01*
Y2865945D01*
X5258888Y2884323D01*
X5247088Y2896123D01*
Y3301415D01*
X5247088Y3301416D01*
X5244759Y3313121D01*
X5238129Y3323045D01*
X4942088Y3619086D01*
Y3725027D01*
X4962088Y3730386D01*
X4964482Y3726239D01*
X4981239Y3709482D01*
X5001761Y3697633D01*
X5024651Y3691500D01*
X5048349D01*
X5071239Y3697633D01*
X5091761Y3709482D01*
X5108518Y3726239D01*
X5120366Y3746761D01*
X5126500Y3769651D01*
Y3793349D01*
X5120366Y3816238D01*
X5108518Y3836761D01*
X5091761Y3853518D01*
X5071239Y3865366D01*
X5048349Y3871500D01*
X5024651D01*
X5001761Y3865366D01*
X4981239Y3853518D01*
X4964482Y3836761D01*
X4960893Y3830545D01*
X4939809Y3834026D01*
X4939759Y3834274D01*
X4933129Y3844198D01*
X4933128Y3844198D01*
X4869698Y3907629D01*
X4859774Y3914259D01*
X4848069Y3916588D01*
D02*
G37*
G36*
X7910192Y3903500D02*
X7886495D01*
X7863605Y3897367D01*
X7843083Y3885518D01*
X7826326Y3868761D01*
X7814477Y3848239D01*
X7808344Y3825349D01*
Y3801652D01*
X7814477Y3778762D01*
X7826326Y3758239D01*
X7843083Y3741482D01*
X7863605Y3729634D01*
X7886495Y3723500D01*
X7910192D01*
X7933082Y3729634D01*
X7953605Y3741482D01*
X7970362Y3758239D01*
X7982210Y3778762D01*
X7988344Y3801652D01*
Y3825349D01*
X7982210Y3848239D01*
X7970362Y3868761D01*
X7953605Y3885518D01*
X7933082Y3897367D01*
X7910192Y3903500D01*
D02*
G37*
G36*
X4298349Y3871500D02*
X4274651D01*
X4251761Y3865366D01*
X4231239Y3853518D01*
X4214482Y3836761D01*
X4202633Y3816238D01*
X4196500Y3793349D01*
Y3769651D01*
X4202633Y3746761D01*
X4214482Y3726239D01*
X4231239Y3709482D01*
X4251761Y3697633D01*
X4255912Y3696521D01*
Y3675668D01*
X4142770Y3562526D01*
X2513729D01*
X2502023Y3560197D01*
X2492100Y3553567D01*
X2492099Y3553566D01*
X2280371Y3341838D01*
X2273741Y3331914D01*
X2271412Y3320209D01*
X2271412Y3320208D01*
Y2071939D01*
X2271412Y2071938D01*
X2273741Y2060232D01*
X2280371Y2050309D01*
X2404332Y1926348D01*
X2404333Y1926347D01*
X2414256Y1919717D01*
X2425961Y1917388D01*
X2425963Y1917389D01*
X3103726D01*
X3115526Y1905588D01*
X3133904Y1897976D01*
X3153795D01*
X3172172Y1905588D01*
X3186237Y1919654D01*
X3193849Y1938031D01*
Y1957922D01*
X3186237Y1976299D01*
X3172172Y1990364D01*
X3153795Y1997976D01*
X3133904D01*
X3115526Y1990364D01*
X3103726Y1978564D01*
X2438631D01*
X2332588Y2084608D01*
Y3307539D01*
X2526399Y3501350D01*
X4155439D01*
X4155440Y3501350D01*
X4167146Y3503679D01*
X4177069Y3510309D01*
X4308129Y3641369D01*
X4314759Y3651292D01*
X4317088Y3662998D01*
Y3696521D01*
X4321238Y3697633D01*
X4341761Y3709482D01*
X4358518Y3726239D01*
X4370366Y3746761D01*
X4376500Y3769651D01*
Y3793349D01*
X4370366Y3816238D01*
X4358518Y3836761D01*
X4341761Y3853518D01*
X4321238Y3865366D01*
X4298349Y3871500D01*
D02*
G37*
G36*
X7910192Y3653500D02*
X7886495D01*
X7863605Y3647367D01*
X7843083Y3635518D01*
X7826326Y3618761D01*
X7814477Y3598239D01*
X7808344Y3575349D01*
Y3551652D01*
X7814477Y3528762D01*
X7826326Y3508239D01*
X7843083Y3491482D01*
X7863605Y3479634D01*
X7886495Y3473500D01*
X7910192D01*
X7933082Y3479634D01*
X7953605Y3491482D01*
X7970362Y3508239D01*
X7982210Y3528762D01*
X7988344Y3551652D01*
Y3575349D01*
X7982210Y3598239D01*
X7970362Y3618761D01*
X7953605Y3635518D01*
X7933082Y3647367D01*
X7910192Y3653500D01*
D02*
G37*
G36*
X1407560Y3411028D02*
X1407559Y3411027D01*
X1268182D01*
X1268181Y3411028D01*
X1256475Y3408699D01*
X1246552Y3402069D01*
X1246551Y3402068D01*
X1062371Y3217888D01*
X1055741Y3207965D01*
X1053412Y3196259D01*
X1053412Y3196258D01*
Y1844864D01*
X1053412Y1844863D01*
X1055741Y1833158D01*
X1062371Y1823234D01*
X1333234Y1552372D01*
X1333234Y1552371D01*
X1343158Y1545741D01*
X1354863Y1543412D01*
X3688679D01*
X3699966Y1523412D01*
X3696000Y1513837D01*
Y1493946D01*
X3703612Y1475569D01*
X3717677Y1461504D01*
X3736055Y1453892D01*
X3755946D01*
X3774323Y1461504D01*
X3786123Y1473304D01*
X3877817D01*
X3877818Y1473304D01*
X3889524Y1475633D01*
X3899447Y1482263D01*
X4015078Y1597894D01*
X4015079Y1597894D01*
X4021709Y1607818D01*
X4024037Y1619523D01*
Y1771762D01*
X4024038Y1771763D01*
X4021709Y1783469D01*
X4015079Y1793392D01*
X4015078Y1793393D01*
X3808842Y1999629D01*
X3798918Y2006259D01*
X3787213Y2008588D01*
X3787212Y2008588D01*
X3653739D01*
X3653738Y2008588D01*
X3642033Y2006259D01*
X3632109Y1999629D01*
X3632109Y1999628D01*
X3570371Y1937891D01*
X3563741Y1927967D01*
X3561412Y1916262D01*
X3561412Y1916261D01*
Y1826588D01*
X1383304D01*
X1288588Y1921304D01*
Y2462636D01*
X1308000Y2464054D01*
X1315612Y2445677D01*
X1329677Y2431612D01*
X1348054Y2424000D01*
X1367946D01*
X1386323Y2431612D01*
X1400388Y2445677D01*
X1408000Y2464054D01*
Y2483946D01*
X1400388Y2502323D01*
X1388588Y2514123D01*
Y2646787D01*
X1386259Y2658493D01*
X1379629Y2668416D01*
X1358416Y2689629D01*
X1348493Y2696259D01*
X1336787Y2698588D01*
X1336786Y2698588D01*
X1231213D01*
X1220588Y2696474D01*
X1219221Y2696432D01*
X1200588Y2707672D01*
Y3135819D01*
X1281301Y3216532D01*
X1302090Y3216380D01*
X1307101Y3211136D01*
X1306116Y3202698D01*
X1301579Y3188199D01*
X1294740Y3183629D01*
X1240371Y3129260D01*
X1233741Y3119336D01*
X1231412Y3107631D01*
X1231412Y3107630D01*
Y2823717D01*
X1231412Y2823716D01*
X1233741Y2812010D01*
X1240371Y2802087D01*
X1252086Y2790372D01*
X1252087Y2790371D01*
X1262010Y2783741D01*
X1273716Y2781412D01*
X1273717Y2781412D01*
X1285877D01*
X1297677Y2769612D01*
X1316054Y2762000D01*
X1335946D01*
X1354323Y2769612D01*
X1368388Y2783677D01*
X1376000Y2802054D01*
Y2821946D01*
X1368388Y2840323D01*
X1354323Y2854388D01*
X1335946Y2862000D01*
X1316054D01*
X1312588Y2860564D01*
X1292588Y2873928D01*
Y2981001D01*
X1312588Y2984979D01*
X1315612Y2977677D01*
X1329677Y2963612D01*
X1348054Y2956000D01*
X1367946D01*
X1386323Y2963612D01*
X1400388Y2977677D01*
X1408000Y2996054D01*
Y3015946D01*
X1400388Y3034323D01*
X1388588Y3046123D01*
Y3078466D01*
X1498193Y3188072D01*
X1498194Y3188073D01*
X1504825Y3197996D01*
X1507153Y3209701D01*
X1507153Y3209703D01*
Y3311435D01*
X1504825Y3323140D01*
X1498194Y3333063D01*
X1429189Y3402069D01*
X1419265Y3408699D01*
X1407560Y3411028D01*
D02*
G37*
G36*
X429108Y3164347D02*
X410677D01*
X392873Y3159576D01*
X376911Y3150361D01*
X363878Y3137328D01*
X354663Y3121366D01*
X349892Y3103562D01*
Y3085131D01*
X354663Y3067328D01*
X363878Y3051366D01*
X376911Y3038333D01*
X392873Y3029117D01*
X410677Y3024347D01*
X429108D01*
X446911Y3029117D01*
X462873Y3038333D01*
X475906Y3051366D01*
X485122Y3067328D01*
X489892Y3085131D01*
Y3103562D01*
X485122Y3121366D01*
X475906Y3137328D01*
X462873Y3150361D01*
X446911Y3159576D01*
X429108Y3164347D01*
D02*
G37*
G36*
X7911180Y2785737D02*
X7885508D01*
X7860710Y2779092D01*
X7838478Y2766256D01*
X7820324Y2748103D01*
X7807489Y2725870D01*
X7800844Y2701073D01*
Y2675401D01*
X7807489Y2650603D01*
X7820324Y2628370D01*
X7838478Y2610217D01*
X7860710Y2597381D01*
X7885508Y2590737D01*
X7911180D01*
X7935978Y2597381D01*
X7958210Y2610217D01*
X7976363Y2628370D01*
X7989199Y2650603D01*
X7995844Y2675401D01*
Y2701073D01*
X7989199Y2725870D01*
X7976363Y2748103D01*
X7958210Y2766256D01*
X7935978Y2779092D01*
X7911180Y2785737D01*
D02*
G37*
G36*
X7995844Y2535737D02*
X7800844D01*
Y2340737D01*
X7995844D01*
Y2535737D01*
D02*
G37*
G36*
X429108Y2364347D02*
X410677D01*
X392873Y2359576D01*
X376911Y2350361D01*
X363878Y2337328D01*
X354663Y2321366D01*
X349892Y2303563D01*
Y2285131D01*
X354663Y2267328D01*
X363878Y2251366D01*
X376911Y2238333D01*
X392873Y2229117D01*
X410677Y2224347D01*
X429108D01*
X446911Y2229117D01*
X462873Y2238333D01*
X475906Y2251366D01*
X485122Y2267328D01*
X489892Y2285131D01*
Y2303563D01*
X485122Y2321366D01*
X475906Y2337328D01*
X462873Y2350361D01*
X446911Y2359576D01*
X429108Y2364347D01*
D02*
G37*
G36*
X7911180Y1879736D02*
X7885508D01*
X7860710Y1873092D01*
X7838478Y1860256D01*
X7820324Y1842103D01*
X7807489Y1819870D01*
X7800844Y1795073D01*
Y1769400D01*
X7807489Y1744603D01*
X7820324Y1722370D01*
X7838478Y1704217D01*
X7860710Y1691381D01*
X7885508Y1684737D01*
X7911180D01*
X7935978Y1691381D01*
X7958210Y1704217D01*
X7976363Y1722370D01*
X7989199Y1744603D01*
X7995844Y1769400D01*
Y1795073D01*
X7989199Y1819870D01*
X7976363Y1842103D01*
X7958210Y1860256D01*
X7935978Y1873092D01*
X7911180Y1879736D01*
D02*
G37*
G36*
X7995844Y1629736D02*
X7800844D01*
Y1434737D01*
X7995844D01*
Y1629736D01*
D02*
G37*
G36*
X4307849Y640000D02*
X4284151D01*
X4261261Y633866D01*
X4240739Y622018D01*
X4223982Y605261D01*
X4212134Y584738D01*
X4206000Y561849D01*
Y538151D01*
X4212134Y515261D01*
X4223982Y494739D01*
X4240739Y477982D01*
X4261261Y466133D01*
X4284151Y460000D01*
X4307849D01*
X4330739Y466133D01*
X4351261Y477982D01*
X4368018Y494739D01*
X4379867Y515261D01*
X4386000Y538151D01*
Y561849D01*
X4379867Y584738D01*
X4368018Y605261D01*
X4351261Y622018D01*
X4330739Y633866D01*
X4307849Y640000D01*
D02*
G37*
G36*
X4136000D02*
X3956000D01*
Y460000D01*
X4136000D01*
Y640000D01*
D02*
G37*
G36*
X2977787D02*
X2954089D01*
X2931199Y633866D01*
X2910677Y622018D01*
X2893920Y605261D01*
X2882071Y584738D01*
X2875938Y561849D01*
Y538151D01*
X2882071Y515261D01*
X2893920Y494739D01*
X2910677Y477982D01*
X2931199Y466133D01*
X2954089Y460000D01*
X2977787D01*
X3000676Y466133D01*
X3021199Y477982D01*
X3037956Y494739D01*
X3049804Y515261D01*
X3055938Y538151D01*
Y561849D01*
X3049804Y584738D01*
X3037956Y605261D01*
X3021199Y622018D01*
X3000676Y633866D01*
X2977787Y640000D01*
D02*
G37*
G36*
X2477787D02*
X2454089D01*
X2431199Y633866D01*
X2410677Y622018D01*
X2393920Y605261D01*
X2382071Y584738D01*
X2375938Y561849D01*
Y538151D01*
X2382071Y515261D01*
X2393920Y494739D01*
X2410677Y477982D01*
X2431199Y466133D01*
X2454089Y460000D01*
X2477787D01*
X2500676Y466133D01*
X2521199Y477982D01*
X2537956Y494739D01*
X2549804Y515261D01*
X2555938Y538151D01*
Y561849D01*
X2549804Y584738D01*
X2537956Y605261D01*
X2521199Y622018D01*
X2500676Y633866D01*
X2477787Y640000D01*
D02*
G37*
G36*
X2055938D02*
X1875938D01*
Y460000D01*
X2055938D01*
Y640000D01*
D02*
G37*
G36*
X3136304Y5230000D02*
X3117873D01*
X3100069Y5225230D01*
X3084108Y5216014D01*
X3071075Y5202981D01*
X3061859Y5187019D01*
X3057089Y5169216D01*
Y5150784D01*
X3061859Y5132981D01*
X3071075Y5117019D01*
X3084108Y5103986D01*
X3100069Y5094771D01*
X3117873Y5090000D01*
X3136304D01*
X3154107Y5094771D01*
X3170069Y5103986D01*
X3183102Y5117019D01*
X3189581Y5128240D01*
X3199145Y5134631D01*
X4574959D01*
X4581605Y5114631D01*
X4570645Y5095646D01*
X4564000Y5070848D01*
Y5045176D01*
X4570645Y5020379D01*
X4583481Y4998146D01*
X4601634Y4979993D01*
X4623866Y4967157D01*
X4648664Y4960512D01*
X4674336D01*
X4699134Y4967157D01*
X4721366Y4979993D01*
X4739519Y4998146D01*
X4752355Y5020379D01*
X4759000Y5045176D01*
Y5070848D01*
X4752355Y5095646D01*
X4741395Y5114631D01*
X4748041Y5134631D01*
X4814000D01*
Y4960512D01*
X5009000D01*
Y5088134D01*
X5027478Y5095788D01*
X6059323Y4063942D01*
Y1378083D01*
X6062815Y1360525D01*
X6072761Y1345640D01*
X6404118Y1014283D01*
Y622005D01*
X6233378Y451265D01*
X6231688Y451718D01*
X6229630Y455027D01*
X6226573Y473794D01*
X6238017Y485239D01*
X6249866Y505761D01*
X6256000Y528651D01*
Y552349D01*
X6249866Y575239D01*
X6238017Y595761D01*
X6221261Y612518D01*
X6200738Y624367D01*
X6177848Y630500D01*
X6154151D01*
X6131261Y624367D01*
X6127540Y622218D01*
X5722587Y1027170D01*
Y3995999D01*
X5722588Y3996000D01*
X5720259Y4007705D01*
X5713629Y4017629D01*
X5713628Y4017630D01*
X5524129Y4207128D01*
X5514206Y4213759D01*
X5502500Y4216088D01*
X5502499Y4216087D01*
X4708307D01*
X4402766Y4521629D01*
X4392842Y4528259D01*
X4381137Y4530588D01*
X4381136Y4530588D01*
X4201433D01*
X4201432Y4530588D01*
X4189726Y4528259D01*
X4179803Y4521629D01*
X4179802Y4521628D01*
X3970571Y4312397D01*
X3963941Y4302474D01*
X3961612Y4290768D01*
X3961612Y4290767D01*
Y3794123D01*
X3949812Y3782323D01*
X3942200Y3763946D01*
Y3744054D01*
X3949812Y3725677D01*
X3963877Y3711612D01*
X3982254Y3704000D01*
X4002146D01*
X4020523Y3711612D01*
X4034588Y3725677D01*
X4042200Y3744054D01*
Y3763946D01*
X4034588Y3782323D01*
X4022788Y3794123D01*
Y3937823D01*
X4041265Y3945477D01*
X4076000Y3910742D01*
Y3894054D01*
X4083612Y3875677D01*
X4097677Y3861612D01*
X4116055Y3854000D01*
X4135946D01*
X4154323Y3861612D01*
X4168388Y3875677D01*
X4176000Y3894054D01*
Y3913946D01*
X4168388Y3932323D01*
X4154323Y3946388D01*
X4135946Y3954000D01*
X4119258D01*
X4072088Y4001170D01*
Y4270830D01*
X4230670Y4429412D01*
X4252415D01*
X4266000Y4409945D01*
Y4390054D01*
X4273612Y4371677D01*
X4287677Y4357612D01*
X4306054Y4350000D01*
X4325946D01*
X4344323Y4357612D01*
X4355727Y4369016D01*
X4640871Y4083871D01*
X4650795Y4077241D01*
X4662500Y4074912D01*
X4662501Y4074912D01*
X5428067D01*
X5430700Y4054912D01*
X5417551Y4051389D01*
X5400449Y4041515D01*
X5386485Y4027551D01*
X5376611Y4010449D01*
X5371500Y3991374D01*
Y3971626D01*
X5376611Y3952551D01*
X5386485Y3935449D01*
X5400449Y3921485D01*
X5417551Y3911611D01*
X5436626Y3906500D01*
X5456374D01*
X5475449Y3911611D01*
X5492551Y3921485D01*
X5506515Y3935449D01*
X5516389Y3952551D01*
X5520513Y3967945D01*
X5531522Y3973438D01*
X5541500Y3975243D01*
X5581412Y3935330D01*
Y2606000D01*
X5575318D01*
X5556941Y2598388D01*
X5542876Y2584323D01*
X5535264Y2565946D01*
Y2546054D01*
X5542876Y2527677D01*
X5556941Y2513612D01*
X5575318Y2506000D01*
X5595210D01*
X5601412Y2508569D01*
X5621412Y2495306D01*
Y804501D01*
X5621412Y804500D01*
X5623741Y792795D01*
X5630371Y782871D01*
X5834282Y578960D01*
X5832133Y575239D01*
X5826000Y552349D01*
Y528651D01*
X5832133Y505761D01*
X5843982Y485239D01*
X5860739Y468482D01*
X5872172Y461881D01*
X5866812Y441882D01*
X4969005D01*
X4883197Y527690D01*
X4886000Y538151D01*
Y561849D01*
X4879867Y584738D01*
X4868018Y605261D01*
X4851261Y622018D01*
X4830739Y633866D01*
X4807849Y640000D01*
X4784151D01*
X4761261Y633866D01*
X4740739Y622018D01*
X4723982Y605261D01*
X4712134Y584738D01*
X4706000Y561849D01*
Y538151D01*
X4712134Y515261D01*
X4723982Y494739D01*
X4740739Y477982D01*
X4761261Y466133D01*
X4784151Y460000D01*
X4807849D01*
X4818310Y462803D01*
X4913232Y367881D01*
X4908018Y350830D01*
X4905808Y347881D01*
X3129191D01*
X3121538Y366359D01*
X3215178Y460000D01*
X3227787D01*
X3250677Y466133D01*
X3271199Y477982D01*
X3287956Y494739D01*
X3299804Y515261D01*
X3305938Y538151D01*
Y561849D01*
X3299804Y584738D01*
X3287956Y605261D01*
X3271199Y622018D01*
X3250677Y633866D01*
X3227787Y640000D01*
X3204089D01*
X3181199Y633866D01*
X3160677Y622018D01*
X3143920Y605261D01*
X3132071Y584738D01*
X3125938Y561849D01*
Y538151D01*
X3132071Y515261D01*
X3135218Y509812D01*
X2973287Y347881D01*
X2803636D01*
X2761819Y389698D01*
Y472567D01*
X2771199Y477982D01*
X2787956Y494739D01*
X2799804Y515261D01*
X2805938Y538151D01*
Y561849D01*
X2799804Y584738D01*
X2787956Y605261D01*
X2771199Y622018D01*
X2750676Y633866D01*
X2727787Y640000D01*
X2704089D01*
X2681199Y633866D01*
X2660677Y622018D01*
X2643920Y605261D01*
X2632071Y584738D01*
X2625938Y561849D01*
Y538151D01*
X2632071Y515261D01*
X2643920Y494739D01*
X2660677Y477982D01*
X2670056Y472567D01*
Y370693D01*
X2670616Y367882D01*
X2654836Y347881D01*
X2307005D01*
X2261819Y393067D01*
Y472567D01*
X2271199Y477982D01*
X2287956Y494739D01*
X2299804Y515261D01*
X2305938Y538151D01*
Y561849D01*
X2299804Y584738D01*
X2287956Y605261D01*
X2271199Y622018D01*
X2250676Y633866D01*
X2227787Y640000D01*
X2204089D01*
X2181199Y633866D01*
X2160677Y622018D01*
X2143920Y605261D01*
X2132071Y584738D01*
X2125938Y561849D01*
Y538151D01*
X2132071Y515261D01*
X2143920Y494739D01*
X2160677Y477982D01*
X2170056Y472567D01*
Y374062D01*
X2173549Y356504D01*
X2183495Y341619D01*
X2255557Y269557D01*
X2270442Y259611D01*
X2288000Y256118D01*
X6421000D01*
X6438558Y259611D01*
X6453443Y269557D01*
X6614443Y430557D01*
X6624389Y445442D01*
X6627882Y463000D01*
Y1512348D01*
X6630149Y1517823D01*
X6635416Y1525705D01*
X6638908Y1543263D01*
X6635416Y1560821D01*
X6627882Y1572097D01*
Y2523151D01*
Y3940426D01*
X6624445Y3957702D01*
Y3957927D01*
X6616833Y3976304D01*
X6602768Y3990369D01*
X6584391Y3997981D01*
X6564500D01*
X6546123Y3990369D01*
X6532057Y3976304D01*
X6524445Y3957927D01*
Y3938035D01*
X6532057Y3919658D01*
X6536118Y3915597D01*
Y2555535D01*
X6532057Y2551474D01*
X6524445Y2533097D01*
Y2513206D01*
X6532057Y2494829D01*
X6536118Y2490767D01*
Y1554289D01*
X6536409Y1552827D01*
X6532000Y1542182D01*
Y1522291D01*
X6536118Y1512348D01*
Y482005D01*
X6401995Y347881D01*
X6287192D01*
X6284982Y350830D01*
X6279767Y367881D01*
X6482443Y570557D01*
X6492389Y585442D01*
X6495881Y603000D01*
Y1033288D01*
X6492389Y1050846D01*
X6482443Y1065731D01*
X6151086Y1397088D01*
Y4082947D01*
X6147593Y4100505D01*
X6137648Y4115390D01*
X5040083Y5212955D01*
X5025198Y5222901D01*
X5007639Y5226394D01*
X3181378D01*
X3163820Y5222901D01*
X3161187Y5221142D01*
X3154107Y5225230D01*
X3136304Y5230000D01*
D02*
G37*
G36*
X1815812Y425000D02*
X1796064D01*
X1776989Y419889D01*
X1759887Y410015D01*
X1745923Y396051D01*
X1736049Y378949D01*
X1730938Y359874D01*
Y340126D01*
X1736049Y321051D01*
X1745923Y303949D01*
X1759887Y289985D01*
X1776989Y280111D01*
X1796064Y275000D01*
X1815812D01*
X1834887Y280111D01*
X1851989Y289985D01*
X1865953Y303949D01*
X1875827Y321051D01*
X1880938Y340126D01*
Y359874D01*
X1875827Y378949D01*
X1865953Y396051D01*
X1851989Y410015D01*
X1834887Y419889D01*
X1815812Y425000D01*
D02*
G37*
G36*
X456130Y689000D02*
X407869D01*
X360536Y679585D01*
X315949Y661116D01*
X275821Y634304D01*
X241696Y600178D01*
X214884Y560051D01*
X196415Y515464D01*
X187000Y468130D01*
Y419869D01*
X196415Y372536D01*
X214884Y327949D01*
X241696Y287821D01*
X275821Y253696D01*
X315949Y226884D01*
X360536Y208415D01*
X407869Y199000D01*
X456130D01*
X503464Y208415D01*
X548051Y226884D01*
X588178Y253696D01*
X622304Y287821D01*
X649116Y327949D01*
X667585Y372536D01*
X677000Y419869D01*
Y468130D01*
X667585Y515464D01*
X649116Y560051D01*
X622304Y600178D01*
X588178Y634304D01*
X548051Y661116D01*
X503464Y679585D01*
X456130Y689000D01*
D02*
G37*
%LPD*%
G36*
X3962862Y1759094D02*
Y1709979D01*
X3943395Y1696394D01*
X3923504D01*
X3905127Y1688782D01*
X3891062Y1674717D01*
X3883450Y1656340D01*
Y1639652D01*
X3856680Y1612881D01*
X3832557Y1614658D01*
X3826000Y1624055D01*
Y1643946D01*
X3818388Y1662323D01*
X3804323Y1676388D01*
X3785946Y1684000D01*
X3766054D01*
X3747677Y1676388D01*
X3747121Y1675831D01*
X3742327Y1676785D01*
X3735744Y1698486D01*
X3740219Y1702962D01*
X3746850Y1712885D01*
X3747086Y1714072D01*
X3749097Y1715241D01*
X3768430Y1718859D01*
X3777677Y1709612D01*
X3796054Y1702000D01*
X3815946D01*
X3834323Y1709612D01*
X3848388Y1723677D01*
X3856000Y1742054D01*
Y1761946D01*
X3848388Y1780323D01*
X3836588Y1792123D01*
Y1859236D01*
X3855065Y1866890D01*
X3962862Y1759094D01*
D02*
G37*
G36*
X6084282Y578960D02*
X6082133Y575239D01*
X6076000Y552349D01*
Y528651D01*
X6082133Y505761D01*
X6093982Y485239D01*
X6110739Y468482D01*
X6122172Y461881D01*
X6116813Y441882D01*
X5965187D01*
X5959828Y461881D01*
X5971261Y468482D01*
X5988017Y485239D01*
X5999866Y505761D01*
X6006000Y528651D01*
Y552349D01*
X5999866Y575239D01*
X5988017Y595761D01*
X5971261Y612518D01*
X5950738Y624367D01*
X5927848Y630500D01*
X5904151D01*
X5881261Y624367D01*
X5877540Y622218D01*
X5682588Y817170D01*
Y954523D01*
X5701065Y962177D01*
X6084282Y578960D01*
D02*
G37*
D40*
X3877818Y1503892D02*
X3993450Y1619523D01*
X3746000Y1503892D02*
X3877818D01*
X3993450Y1619523D02*
Y1771763D01*
X4848069Y3886000D02*
X4911500Y3822569D01*
X4571000Y3886000D02*
X4848069D01*
X4911500Y3606416D02*
Y3822569D01*
Y3606416D02*
X5216500Y3301416D01*
X4871500Y3589847D02*
Y3696500D01*
Y3589847D02*
X5086000Y3375348D01*
X4786500Y3781500D02*
X4871500Y3696500D01*
X5216500Y2856000D02*
Y3301416D01*
X5086000Y2942000D02*
Y3375348D01*
X4552211Y3797211D02*
Y3867211D01*
X4536500Y3781500D02*
X4552211Y3797211D01*
Y3867211D02*
X4571000Y3886000D01*
X4201432Y4500000D02*
X4381137D01*
X4695637Y4185500D02*
X5502500D01*
X4364568Y4460000D02*
X4679069Y4145500D01*
X4381137Y4500000D02*
X4695637Y4185500D01*
X4316000Y4400000D02*
X4368000D01*
X4662500Y4105500D01*
X5454500D01*
X4218000Y4460000D02*
X4364568D01*
X4679069Y4145500D02*
X5485932D01*
X5652000Y3979432D01*
X5502500Y4185500D02*
X5692000Y3996000D01*
X5454500Y4105500D02*
X5612000Y3948000D01*
X4041500Y3988500D02*
Y4283500D01*
X3992200Y3754000D02*
Y4290768D01*
X4041500Y4283500D02*
X4218000Y4460000D01*
X3992200Y4290768D02*
X4201432Y4500000D01*
X5612000Y2587716D02*
Y3948000D01*
X5585264Y2556000D02*
Y2560980D01*
X5652000Y804500D02*
Y3979432D01*
X5585264Y2560980D02*
X5612000Y2587716D01*
X5692000Y1014500D02*
Y3996000D01*
Y1014500D02*
X6166000Y540500D01*
X5652000Y804500D02*
X5916000Y540500D01*
X4155440Y3531938D02*
X4286500Y3662998D01*
X2513729Y3531938D02*
X4155440D01*
X4286500Y3662998D02*
Y3781500D01*
X2302000Y2071938D02*
X2425961Y1947976D01*
X2302000Y2071938D02*
Y3320209D01*
X2513729Y3531938D01*
X2425961Y1947976D02*
X3143849D01*
X4041500Y3988500D02*
X4126000Y3904000D01*
X1270085Y3248574D02*
X1346574D01*
X1170000Y1872000D02*
Y3148489D01*
X1270085Y3248574D01*
X1294847Y3336847D02*
X1378888D01*
X1124000Y1861432D02*
Y3166000D01*
X1294847Y3336847D01*
X1084000Y1844863D02*
Y3196259D01*
X1268181Y3380440D02*
X1407560D01*
X1084000Y3196259D02*
X1268181Y3380440D01*
X1084000Y1844863D02*
X1354863Y1574000D01*
X1124000Y1861432D02*
X1351432Y1634000D01*
X1210000Y1890000D02*
Y2646787D01*
X1231213Y2668000D02*
X1336787D01*
X1210000Y2646787D02*
X1231213Y2668000D01*
X1336787D02*
X1358000Y2646787D01*
Y2474000D02*
Y2646787D01*
X1258000Y2552151D02*
X1293685Y2587837D01*
X1258000Y1908634D02*
X1370634Y1796000D01*
X1258000Y1908634D02*
Y2552151D01*
X1370634Y1796000D02*
X3580284D01*
X3787213Y1978000D02*
X3993450Y1771763D01*
X3632000Y1896284D02*
X3673716Y1938000D01*
X3592000Y1916262D02*
X3653738Y1978000D01*
X3592000Y1807716D02*
Y1916262D01*
X3616284Y1742000D02*
X3632000Y1757716D01*
Y1896284D01*
X3580284Y1796000D02*
X3592000Y1807716D01*
X1358000Y1742000D02*
X3616284D01*
X3806000Y1752000D02*
Y1902645D01*
X3653738Y1978000D02*
X3787213D01*
X3770645Y1938000D02*
X3806000Y1902645D01*
X3673716Y1938000D02*
X3770645D01*
X1346574Y3248574D02*
X1350000Y3252000D01*
X1407560Y3380440D02*
X1476565Y3311435D01*
Y3209701D02*
Y3311435D01*
X1433476Y3225476D02*
Y3282259D01*
X1378888Y3336847D02*
X1433476Y3282259D01*
X1316369Y3162000D02*
X1370000D01*
X1262000Y2823716D02*
Y3107631D01*
X1316369Y3162000D01*
X1370000D02*
X1433476Y3225476D01*
X1358000Y3006000D02*
Y3091136D01*
X1476565Y3209701D01*
X1354863Y1574000D02*
X3861056D01*
X3933450Y1646394D01*
X1351432Y1634000D02*
X3776000D01*
X1210000Y1890000D02*
X1358000Y1742000D01*
X1352000Y1690000D02*
X3684000D01*
X1170000Y1872000D02*
X1352000Y1690000D01*
X1262000Y2823716D02*
X1273716Y2812000D01*
X1326000D01*
X3684000Y1690000D02*
X3718590Y1724590D01*
Y1856394D01*
D41*
X4796000Y550000D02*
X4950000Y396000D01*
X6243000D01*
X6582000Y2523151D02*
Y3940426D01*
Y1554289D02*
Y2523151D01*
X6421000Y302000D02*
X6582000Y463000D01*
Y1532236D01*
X2992292Y302000D02*
X6421000D01*
X6105204Y1378083D02*
X6450000Y1033288D01*
Y603000D02*
Y1033288D01*
X6243000Y396000D02*
X6450000Y603000D01*
X6105204Y1378083D02*
Y4082947D01*
X5007639Y5180512D02*
X6105204Y4082947D01*
X3136655Y5169567D02*
X3170433D01*
X3127088Y5160000D02*
X3136655Y5169567D01*
X3170433D02*
X3181378Y5180512D01*
X5007639D01*
X6582000Y1554289D02*
X6593027Y1543263D01*
X2784631Y302000D02*
X2992292D01*
X2715938Y370693D02*
X2784631Y302000D01*
X2715938Y370693D02*
Y550000D01*
X2288000Y302000D02*
X2784631D01*
X2992292D02*
X3215938Y525646D01*
Y550000D01*
X2215938Y374062D02*
X2288000Y302000D01*
X2215938Y374062D02*
Y550000D01*
D43*
X8218000Y444000D02*
D03*
Y5118000D02*
D03*
X431521Y5115359D02*
D03*
X432000Y444000D02*
D03*
D44*
X6506682Y1660789D02*
D03*
X5904151Y1580736D02*
D03*
X5859997Y1505237D02*
D03*
X3143849Y1947976D02*
D03*
X3992200Y3754000D02*
D03*
X4126000Y3904000D02*
D03*
X5216500Y2856000D02*
D03*
X5086000Y2942000D02*
D03*
X6574445Y3947981D02*
D03*
X5585264Y2556000D02*
D03*
X4316000Y4400000D02*
D03*
X6574445Y2523151D02*
D03*
X6582000Y1532236D02*
D03*
X1293685Y2587837D02*
D03*
X3746000Y1503892D02*
D03*
X1358000Y3006000D02*
D03*
X3933450Y1646394D02*
D03*
X1326000Y2812000D02*
D03*
X3776000Y1634000D02*
D03*
X1358000Y2474000D02*
D03*
X3806000Y1752000D02*
D03*
X1350000Y3252000D02*
D03*
X3718590Y1856394D02*
D03*
X2250000Y4555651D02*
D03*
X2361041D02*
D03*
X2138959D02*
D03*
Y4460182D02*
D03*
X2361041D02*
D03*
X2250000D02*
D03*
X2137918Y4371173D02*
D03*
X2360000D02*
D03*
X2248959D02*
D03*
X2251041Y4826000D02*
D03*
X2362082D02*
D03*
X2140000D02*
D03*
Y4730532D02*
D03*
X2362082D02*
D03*
X2251041D02*
D03*
X2138959Y4641523D02*
D03*
X2361041D02*
D03*
X2250000D02*
D03*
X1944000Y4554195D02*
D03*
X2055041D02*
D03*
X1832959D02*
D03*
Y4458726D02*
D03*
X2055041D02*
D03*
X1944000D02*
D03*
X1831918Y4369717D02*
D03*
X2054000D02*
D03*
X1942959D02*
D03*
X1945041Y4826000D02*
D03*
X2056082D02*
D03*
X1834000D02*
D03*
Y4730532D02*
D03*
X2056082D02*
D03*
X1945041D02*
D03*
X1832959Y4641523D02*
D03*
X2055041D02*
D03*
X1944000D02*
D03*
X1358416Y2924347D02*
D03*
X1659999D02*
D03*
X6309997Y2048450D02*
D03*
X5934151D02*
D03*
X5114323Y2182200D02*
D03*
X4830739D02*
D03*
X3982254Y2068450D02*
D03*
X3871213D02*
D03*
X4265364Y2456183D02*
D03*
X4376405D02*
D03*
X4487446D02*
D03*
X4598488D02*
D03*
X4709529D02*
D03*
X4154323D02*
D03*
Y2360715D02*
D03*
X4709529D02*
D03*
X4598488D02*
D03*
X4487446D02*
D03*
X4376405D02*
D03*
X4265364D02*
D03*
X4267629Y2641523D02*
D03*
X4378670D02*
D03*
X4489711D02*
D03*
X4600753D02*
D03*
X4711794D02*
D03*
X4156588D02*
D03*
Y2546054D02*
D03*
X4711794D02*
D03*
X4600753D02*
D03*
X4489711D02*
D03*
X4378670D02*
D03*
X4267629D02*
D03*
X4268670Y2730532D02*
D03*
X4379711D02*
D03*
X4490753D02*
D03*
X4601794D02*
D03*
X4712835D02*
D03*
X4157629D02*
D03*
Y2826000D02*
D03*
X4712835D02*
D03*
X4601794D02*
D03*
X4490753D02*
D03*
X4379711D02*
D03*
X4268670D02*
D03*
X5417080Y3160000D02*
D03*
X8409997Y4659998D02*
D03*
X8259997Y4359998D02*
D03*
X8409997Y4059998D02*
D03*
X8259997Y3759998D02*
D03*
X8409997Y3459998D02*
D03*
X8259997Y3159998D02*
D03*
X8409997Y2859998D02*
D03*
X8259997Y2559998D02*
D03*
X8409997Y2259999D02*
D03*
X8259997Y1959999D02*
D03*
X8409997Y1659999D02*
D03*
X8259997Y1359999D02*
D03*
X8409997Y1059999D02*
D03*
X8259997Y759999D02*
D03*
Y159999D02*
D03*
X7959997Y4959998D02*
D03*
X8109997Y4659998D02*
D03*
X7959997Y4359998D02*
D03*
X8109997Y4059998D02*
D03*
Y3459998D02*
D03*
X7959997Y3159998D02*
D03*
X8109997Y2859998D02*
D03*
Y2259999D02*
D03*
X7959997Y1959999D02*
D03*
X8109997Y1659999D02*
D03*
X7959997Y1359999D02*
D03*
X8109997Y1059999D02*
D03*
X7959997Y759999D02*
D03*
Y159999D02*
D03*
X7809997Y5259998D02*
D03*
X7659997Y4959998D02*
D03*
X7809997Y4659998D02*
D03*
X7659997Y4359998D02*
D03*
X7809997Y4059998D02*
D03*
X7659997Y3759998D02*
D03*
Y3159998D02*
D03*
X7809997Y2859998D02*
D03*
X7659997Y2559998D02*
D03*
X7809997Y2259999D02*
D03*
X7659997Y1959999D02*
D03*
X7809997Y1659999D02*
D03*
X7659997Y1359999D02*
D03*
X7809997Y1059999D02*
D03*
X7659997Y759999D02*
D03*
X7809997Y459999D02*
D03*
X7659997Y159999D02*
D03*
X7509997Y5259998D02*
D03*
X7359997Y4959998D02*
D03*
X7509997Y4659998D02*
D03*
X7359997Y4359998D02*
D03*
X7509997Y4059998D02*
D03*
X7359997Y3759998D02*
D03*
Y3159998D02*
D03*
X7509997Y2859998D02*
D03*
Y2259999D02*
D03*
X7359997Y1959999D02*
D03*
X7509997Y1659999D02*
D03*
X7359997Y1359999D02*
D03*
X7509997Y1059999D02*
D03*
X7359997Y759999D02*
D03*
X7509997Y459999D02*
D03*
X7359997Y159999D02*
D03*
X7209997Y5259998D02*
D03*
X7059997Y4959998D02*
D03*
X7209997Y4659998D02*
D03*
X7059997Y4359998D02*
D03*
X7209997Y4059998D02*
D03*
X7059997Y3159998D02*
D03*
Y1959999D02*
D03*
X7209997Y1059999D02*
D03*
X7059997Y759999D02*
D03*
X7209997Y459999D02*
D03*
X7059997Y159999D02*
D03*
X6909997Y5259998D02*
D03*
X6759997Y4959998D02*
D03*
X6909997Y4659998D02*
D03*
X6759997Y4359998D02*
D03*
Y3759998D02*
D03*
Y3159998D02*
D03*
X6909997Y2859998D02*
D03*
Y2259999D02*
D03*
X6759997Y1359999D02*
D03*
X6909997Y1059999D02*
D03*
X6759997Y759999D02*
D03*
X6909997Y459999D02*
D03*
X6759997Y159999D02*
D03*
X6609997Y5259998D02*
D03*
X6459997Y4959998D02*
D03*
X6609997Y4659998D02*
D03*
X6459997Y4359998D02*
D03*
X6609997Y4059998D02*
D03*
X6459997Y3159998D02*
D03*
Y159999D02*
D03*
X6309997Y5259998D02*
D03*
X6159997Y4959998D02*
D03*
X6309997Y4659998D02*
D03*
X6159997Y4359998D02*
D03*
X6309997Y4059998D02*
D03*
Y2859998D02*
D03*
X6159997Y759999D02*
D03*
Y159999D02*
D03*
X6009997Y5259998D02*
D03*
X5859997Y4959998D02*
D03*
X6009997Y4659998D02*
D03*
Y4059998D02*
D03*
Y3459998D02*
D03*
X5859997Y3159998D02*
D03*
X6009997Y2859998D02*
D03*
X5859997Y2559998D02*
D03*
X6009997Y1059999D02*
D03*
X5859997Y759999D02*
D03*
Y159999D02*
D03*
X5709997Y5259998D02*
D03*
X5559998Y4959998D02*
D03*
X5709997Y4659998D02*
D03*
X5559998Y4359998D02*
D03*
Y1959999D02*
D03*
Y759999D02*
D03*
Y159999D02*
D03*
X5409998Y5259998D02*
D03*
Y4659998D02*
D03*
X5259998Y4359998D02*
D03*
X5409998Y2859998D02*
D03*
X5259998Y2559998D02*
D03*
Y1959999D02*
D03*
X5409998Y1059999D02*
D03*
X5259998Y759999D02*
D03*
Y159999D02*
D03*
X5109998Y5259998D02*
D03*
Y4659998D02*
D03*
X4959998Y3159998D02*
D03*
X5109998Y2859998D02*
D03*
X4959998Y1959999D02*
D03*
X5109998Y1059999D02*
D03*
X4959998Y759999D02*
D03*
Y159999D02*
D03*
X4809998Y5259998D02*
D03*
X4659998Y3759998D02*
D03*
X4809998Y3459998D02*
D03*
X4659998Y3159998D02*
D03*
X4809998Y1059999D02*
D03*
X4659998Y759999D02*
D03*
Y159999D02*
D03*
X4359998Y4959998D02*
D03*
X4509998Y4059998D02*
D03*
Y3459998D02*
D03*
X4359998Y3159998D02*
D03*
Y1359999D02*
D03*
X4509998Y1059999D02*
D03*
X4359998Y159999D02*
D03*
X4059998Y4959998D02*
D03*
X4209998Y4659998D02*
D03*
Y4059998D02*
D03*
X4059998Y3159998D02*
D03*
Y1359999D02*
D03*
X4209998Y1059999D02*
D03*
Y459999D02*
D03*
X4059998Y159999D02*
D03*
X3759998Y4959998D02*
D03*
X3909998Y4659998D02*
D03*
X3759998Y4359998D02*
D03*
X3909998Y4059998D02*
D03*
X3759998Y3759998D02*
D03*
X3909998Y3459998D02*
D03*
X3759998Y3159998D02*
D03*
Y1359999D02*
D03*
X3909998Y1059999D02*
D03*
X3759998Y759999D02*
D03*
X3909998Y459999D02*
D03*
X3759998Y159999D02*
D03*
X3609998Y3459998D02*
D03*
X3459998Y3159998D02*
D03*
X3609998Y2859998D02*
D03*
X3459998Y1359999D02*
D03*
X3609998Y1059999D02*
D03*
X3459998Y759999D02*
D03*
X3609998Y459999D02*
D03*
X3459998Y159999D02*
D03*
X3309998Y3459998D02*
D03*
X3159998Y2559998D02*
D03*
X3309998Y1059999D02*
D03*
X3159998Y759999D02*
D03*
X3309998Y459999D02*
D03*
X3159998Y159999D02*
D03*
X3009998Y3459998D02*
D03*
X2859998Y2559998D02*
D03*
Y1359999D02*
D03*
Y759999D02*
D03*
Y159999D02*
D03*
X2709998Y4659998D02*
D03*
Y4059998D02*
D03*
Y3459998D02*
D03*
X2559998Y3159998D02*
D03*
Y2559998D02*
D03*
X2709998Y1059999D02*
D03*
X2559998Y759999D02*
D03*
Y159999D02*
D03*
X2259999Y4959998D02*
D03*
X2409998Y4059998D02*
D03*
X2259999Y3759998D02*
D03*
X2409998Y2259999D02*
D03*
X2259999Y1959999D02*
D03*
Y759999D02*
D03*
Y159999D02*
D03*
X1959999Y4959998D02*
D03*
X2109999Y4059998D02*
D03*
X1959999Y3759998D02*
D03*
X2109999Y3459998D02*
D03*
Y2859998D02*
D03*
Y2259999D02*
D03*
X1959999Y1959999D02*
D03*
Y1359999D02*
D03*
X2109999Y459999D02*
D03*
X1959999Y159999D02*
D03*
X1809999Y4059998D02*
D03*
X1659999Y3759998D02*
D03*
X1809999Y3459998D02*
D03*
X1659999Y3159998D02*
D03*
X1809999Y2259999D02*
D03*
X1659999Y1959999D02*
D03*
Y1359999D02*
D03*
X1809999Y1059999D02*
D03*
X1659999Y759999D02*
D03*
X1809999Y459999D02*
D03*
X1659999Y159999D02*
D03*
X1359999Y4359998D02*
D03*
X1509999Y4059998D02*
D03*
X1359999Y3759998D02*
D03*
X1509999Y2259999D02*
D03*
X1359999Y1359999D02*
D03*
X1509999Y1059999D02*
D03*
X1359999Y759999D02*
D03*
X1509999Y459999D02*
D03*
X1359999Y159999D02*
D03*
X1209999Y5259998D02*
D03*
X1059999Y4359998D02*
D03*
X1209999Y4059998D02*
D03*
X1059999Y3759998D02*
D03*
X1209999Y3459998D02*
D03*
X1059999Y1359999D02*
D03*
X1209999Y1059999D02*
D03*
X1059999Y759999D02*
D03*
X1209999Y459999D02*
D03*
X1059999Y159999D02*
D03*
X909999Y5259998D02*
D03*
X759999Y4959998D02*
D03*
Y4359998D02*
D03*
X909999Y4059998D02*
D03*
X759999Y3759998D02*
D03*
X909999Y3459998D02*
D03*
X759999Y3159998D02*
D03*
X909999Y2859998D02*
D03*
X759999Y2559998D02*
D03*
X909999Y2259999D02*
D03*
X759999Y1959999D02*
D03*
X909999Y1659999D02*
D03*
X759999Y1359999D02*
D03*
X909999Y1059999D02*
D03*
X759999Y759999D02*
D03*
X909999Y459999D02*
D03*
X759999Y159999D02*
D03*
X609999Y4059998D02*
D03*
X459999Y3759998D02*
D03*
X609999Y3459998D02*
D03*
Y2859998D02*
D03*
X459999Y2559998D02*
D03*
X609999Y2259999D02*
D03*
X459999Y1959999D02*
D03*
X609999Y1659999D02*
D03*
X459999Y1359999D02*
D03*
X609999Y1059999D02*
D03*
X459999Y759999D02*
D03*
Y159999D02*
D03*
X159999Y4959998D02*
D03*
X309999Y4659998D02*
D03*
X159999Y4359998D02*
D03*
X309999Y4059998D02*
D03*
X159999Y3759998D02*
D03*
X309999Y3459998D02*
D03*
X159999Y3159998D02*
D03*
X309999Y2859998D02*
D03*
X159999Y2559998D02*
D03*
X309999Y2259999D02*
D03*
X159999Y1959999D02*
D03*
X309999Y1659999D02*
D03*
X159999Y1359999D02*
D03*
X309999Y1059999D02*
D03*
X159999Y759999D02*
D03*
D45*
X3127088Y5160000D02*
D03*
D46*
X1805938Y350000D02*
D03*
X5446500Y3981500D02*
D03*
D47*
X3215938Y550000D02*
D03*
X2965938D02*
D03*
X2715938D02*
D03*
X2465938D02*
D03*
X2215938D02*
D03*
X4546000D02*
D03*
X6166000Y540500D02*
D03*
X5916000D02*
D03*
X4796000Y550000D02*
D03*
X4296000D02*
D03*
X7898344Y3813500D02*
D03*
Y3563500D02*
D03*
X5036500Y3781500D02*
D03*
X4786500D02*
D03*
X4536500D02*
D03*
X4286500D02*
D03*
D48*
X1965938Y550000D02*
D03*
X5666000Y540500D02*
D03*
X5286500Y3781500D02*
D03*
X4046000Y550000D02*
D03*
D49*
X576500Y4447000D02*
D03*
X7898344Y1532236D02*
D03*
Y2438237D02*
D03*
D50*
X576500Y4197000D02*
D03*
X4661500Y5058012D02*
D03*
X7898344Y1782236D02*
D03*
Y2688237D02*
D03*
D51*
X4911500Y5058012D02*
D03*
D52*
X7898344Y3313500D02*
D03*
D53*
X419892Y2294347D02*
D03*
Y3094347D02*
D03*
%TF.MD5,4ed788748dec8fb13d7fa48bdc8a622a*%
M02*
