%TF.GenerationSoftware,Altium Limited,Altium Designer,25.6.2 (33)*%
G04 Layer_Color=8388736*
%FSLAX45Y45*%
%MOMM*%
%TF.SameCoordinates,8AE9E5EF-2348-4DBE-AA87-B46EC27F1771*%
%TF.FilePolarity,Negative*%
%TF.FileFunction,Soldermask,Top*%
%TF.Part,Single*%
G01*
G75*
%TA.AperFunction,SMDPad,CuDef*%
%ADD11R,0.75814X0.81213*%
%ADD13R,5.08000X1.27000*%
%ADD14R,5.00000X9.00000*%
%ADD15R,0.90000X0.80000*%
%ADD16R,1.40000X0.95000*%
%ADD17R,1.35000X0.95000*%
%ADD21R,6.20000X5.80000*%
%ADD22R,1.55000X1.00000*%
%ADD23R,1.35490X1.85822*%
%ADD24R,0.81213X0.75814*%
%ADD26R,1.60000X1.50000*%
%ADD27R,0.95000X1.40000*%
%ADD28R,0.95000X1.35000*%
%ADD29R,1.10000X1.90000*%
%ADD31R,0.60000X1.40000*%
%ADD33C,1.50876*%
%ADD34R,3.00000X1.60000*%
%ADD35R,1.60981X0.95606*%
%ADD36R,0.99060X0.40640*%
%TA.AperFunction,ComponentPad*%
%ADD40C,1.40000*%
%ADD41R,1.40000X1.40000*%
%ADD43C,1.55000*%
%ADD44R,1.40000X1.40000*%
%ADD48C,1.10000*%
%ADD49R,1.55000X1.55000*%
%ADD50R,1.55000X1.55000*%
%TA.AperFunction,SMDPad,CuDef*%
%ADD58R,1.25320X0.70320*%
%ADD59R,1.72820X0.85320*%
%ADD60R,1.30320X1.45320*%
%ADD61R,1.05320X0.95320*%
%ADD62R,0.80320X1.50320*%
%ADD63R,1.67820X0.50320*%
%ADD64R,0.50320X1.67820*%
%ADD65R,0.70320X1.30320*%
%TA.AperFunction,ComponentPad*%
%ADD66C,0.70320*%
%TA.AperFunction,ViaPad*%
%ADD67C,4.70320*%
G36*
X1393135Y4909991D02*
X1540455D01*
Y4686471D01*
X1393135D01*
Y4678851D01*
X1316935D01*
Y4719491D01*
X1367735D01*
Y4744891D01*
X1316935D01*
Y4785531D01*
X1367735D01*
Y4810931D01*
X1316935D01*
Y4851571D01*
X1367735D01*
Y4876971D01*
X1316935D01*
Y4917611D01*
X1393135D01*
Y4909991D01*
D02*
G37*
D11*
X7522256Y2227070D02*
D03*
X4461408Y4626500D02*
D03*
X1396267Y5085188D02*
D03*
X7396857Y2227070D02*
D03*
X3510788Y4025396D02*
D03*
X4586807Y4626500D02*
D03*
X4461408Y4407940D02*
D03*
X4586807D02*
D03*
X7396857Y1153526D02*
D03*
X7522256D02*
D03*
X3385389Y4025396D02*
D03*
X1521666Y5085188D02*
D03*
D13*
X1788000Y1522105D02*
D03*
Y3719105D02*
D03*
D14*
Y2620605D02*
D03*
D15*
X2487809Y3775568D02*
D03*
X7311934Y3560000D02*
D03*
X7511934Y3655000D02*
D03*
Y3465000D02*
D03*
X2687809Y3680568D02*
D03*
X2487809Y3585568D02*
D03*
D16*
X2758722Y3151160D02*
D03*
X3713589Y4495788D02*
D03*
X6105204Y1690236D02*
D03*
Y2676737D02*
D03*
X2758722Y2966160D02*
D03*
X3713589Y4680787D02*
D03*
X6105204Y1505237D02*
D03*
Y2491737D02*
D03*
D17*
X3409223Y2350064D02*
D03*
X2925331Y2481508D02*
D03*
X2687809Y1806274D02*
D03*
X3117089Y2667151D02*
D03*
X3321723Y2666000D02*
D03*
X3409223Y2500064D02*
D03*
X2925331Y2331508D02*
D03*
X3117089Y2817152D02*
D03*
X3321723Y2816000D02*
D03*
X2687809Y1956274D02*
D03*
D21*
X2098000Y4584378D02*
D03*
D22*
X3408364Y1696394D02*
D03*
X2883364D02*
D03*
Y2016394D02*
D03*
X3408364D02*
D03*
D23*
X2836024Y4024287D02*
D03*
X3151154D02*
D03*
D24*
X7169204Y1275838D02*
D03*
Y1912436D02*
D03*
X7145730Y2264977D02*
D03*
X7145731Y2897518D02*
D03*
X1965938Y1096699D02*
D03*
X2465938D02*
D03*
X2965938D02*
D03*
X7085124Y3622699D02*
D03*
Y3497301D02*
D03*
X7169204Y1401236D02*
D03*
Y1787037D02*
D03*
X7145730Y2390376D02*
D03*
X7145731Y2772119D02*
D03*
X1965938Y971301D02*
D03*
X2465938D02*
D03*
X2965938D02*
D03*
D26*
X5337079Y1814000D02*
D03*
Y1454000D02*
D03*
D27*
X3675589Y5063147D02*
D03*
X2584500D02*
D03*
X3490589D02*
D03*
X2769500D02*
D03*
D28*
X1457073Y4433731D02*
D03*
X1607073D02*
D03*
D29*
X3264223Y3252405D02*
D03*
X3514223D02*
D03*
D31*
X3351089Y4853287D02*
D03*
X3224089D02*
D03*
Y4323288D02*
D03*
X3351089D02*
D03*
X3478089Y4853287D02*
D03*
X3097089D02*
D03*
Y4323288D02*
D03*
X3478089D02*
D03*
D33*
X1456635Y4777911D02*
D03*
D34*
X2807000Y4355879D02*
D03*
Y4812878D02*
D03*
D35*
X5038308Y1503892D02*
D03*
Y1764108D02*
D03*
D36*
X1653485Y4699171D02*
D03*
Y4765211D02*
D03*
Y4831251D02*
D03*
Y4897291D02*
D03*
D40*
X7898344Y2490767D02*
D03*
Y2740767D02*
D03*
X7901495Y1416215D02*
D03*
Y1666215D02*
D03*
X7898344Y3563500D02*
D03*
Y3813500D02*
D03*
X4546000Y550000D02*
D03*
X3215938D02*
D03*
X2715938D02*
D03*
X2215938D02*
D03*
X5036500Y3781500D02*
D03*
X4286500D02*
D03*
X2965938Y550000D02*
D03*
X2465938D02*
D03*
X6166000Y540500D02*
D03*
X5916000D02*
D03*
X4796000Y550000D02*
D03*
X4296000D02*
D03*
X4786500Y3781500D02*
D03*
X4536500D02*
D03*
D41*
X7898344Y2240767D02*
D03*
X7901495Y1166215D02*
D03*
X7898344Y3313500D02*
D03*
D43*
X576500Y4197000D02*
D03*
X4661500Y5058012D02*
D03*
D44*
X5666000Y540500D02*
D03*
X5286500Y3781500D02*
D03*
X1965938Y550000D02*
D03*
X4046000D02*
D03*
D48*
X1805938Y350000D02*
D03*
X5446500Y3981500D02*
D03*
D49*
X576500Y4447000D02*
D03*
D50*
X4911500Y5058012D02*
D03*
D58*
X7351000Y2645180D02*
D03*
X7561000Y1591736D02*
D03*
Y2580180D02*
D03*
X7351000Y2515180D02*
D03*
Y1656737D02*
D03*
Y1526736D02*
D03*
D59*
X6906931Y2645303D02*
D03*
X6906839Y3372501D02*
D03*
X6364500Y1655236D02*
D03*
X6364531Y2645303D02*
D03*
X6906839Y3626501D02*
D03*
Y3499501D02*
D03*
X6906931Y2518303D02*
D03*
Y2772303D02*
D03*
Y2391303D02*
D03*
X6364531D02*
D03*
Y2772303D02*
D03*
Y2518303D02*
D03*
X6906839Y3753501D02*
D03*
X6364439Y3372501D02*
D03*
Y3753501D02*
D03*
Y3499501D02*
D03*
Y3626501D02*
D03*
X6364500Y1528236D02*
D03*
Y1782236D02*
D03*
Y1401236D02*
D03*
X6906900D02*
D03*
Y1528236D02*
D03*
Y1655236D02*
D03*
Y1782236D02*
D03*
D60*
X3718590Y3372615D02*
D03*
X3095946D02*
D03*
X3718590Y3202615D02*
D03*
X3095946D02*
D03*
D61*
X3233494Y2367330D02*
D03*
X3098494Y2472330D02*
D03*
Y2367330D02*
D03*
X3233494Y2472330D02*
D03*
D62*
X4933000Y4403000D02*
D03*
X4838000Y4613000D02*
D03*
X4743000Y4403000D02*
D03*
D63*
X3992200Y2541000D02*
D03*
Y2591000D02*
D03*
Y2641000D02*
D03*
Y2391000D02*
D03*
X4839800Y2641000D02*
D03*
Y2841000D02*
D03*
Y2791000D02*
D03*
Y2741000D02*
D03*
Y2691000D02*
D03*
Y2591000D02*
D03*
Y2541000D02*
D03*
Y2491000D02*
D03*
Y2441000D02*
D03*
Y2391000D02*
D03*
Y2341000D02*
D03*
Y2291000D02*
D03*
X3992200D02*
D03*
Y2341000D02*
D03*
Y2441000D02*
D03*
Y2491000D02*
D03*
Y2691000D02*
D03*
Y2741000D02*
D03*
Y2791000D02*
D03*
Y2841000D02*
D03*
D64*
X4291000Y2142200D02*
D03*
X4241000D02*
D03*
X4191000D02*
D03*
X4391000D02*
D03*
X4341000D02*
D03*
X4141000Y2989800D02*
D03*
X4191000D02*
D03*
X4241000D02*
D03*
X4291000D02*
D03*
X4341000D02*
D03*
X4391000D02*
D03*
X4441000D02*
D03*
X4491000D02*
D03*
X4541000D02*
D03*
X4591000D02*
D03*
X4641000D02*
D03*
X4691000D02*
D03*
Y2142200D02*
D03*
X4641000D02*
D03*
X4591000D02*
D03*
X4541000D02*
D03*
X4491000D02*
D03*
X4441000D02*
D03*
X4141000D02*
D03*
D65*
X4257262Y5084657D02*
D03*
Y4849657D02*
D03*
D66*
X1453696Y2857151D02*
D03*
Y2057151D02*
D03*
D67*
X8218000Y444000D02*
D03*
Y5118000D02*
D03*
X431521Y5115359D02*
D03*
X432000Y444000D02*
D03*
%TF.MD5,a2b72b2850295a511b28aed918cb03ff*%
M02*
