%TF.GenerationSoftware,Altium Limited,Altium Designer,25.6.2 (33)*%
G04 Layer_Color=16711935*
%FSLAX45Y45*%
%MOMM*%
%TF.SameCoordinates,8AE9E5EF-2348-4DBE-AA87-B46EC27F1771*%
%TF.FilePolarity,Negative*%
%TF.FileFunction,Soldermask,Bot*%
%TF.Part,Single*%
G01*
G75*
%TA.AperFunction,SMDPad,CuDef*%
%ADD16R,1.40000X0.95000*%
%TA.AperFunction,ComponentPad*%
%ADD40C,1.40000*%
%ADD41R,1.40000X1.40000*%
%ADD43C,1.55000*%
%ADD44R,1.40000X1.40000*%
%ADD48C,1.10000*%
%ADD49R,1.55000X1.55000*%
%ADD50R,1.55000X1.55000*%
%ADD66C,0.70320*%
%TA.AperFunction,ViaPad*%
%ADD67C,4.70320*%
%TA.AperFunction,SMDPad,CuDef*%
%ADD68R,1.80320X0.90320*%
%ADD69R,1.80320X1.70320*%
%ADD70R,2.40320X1.40320*%
%ADD71R,2.00320X1.40320*%
D16*
X2877604Y3151160D02*
D03*
X2693319D02*
D03*
X2877604Y2966160D02*
D03*
X2693319D02*
D03*
D40*
X7898344Y2490767D02*
D03*
Y2740767D02*
D03*
X7901495Y1416215D02*
D03*
Y1666215D02*
D03*
X7898344Y3563500D02*
D03*
Y3813500D02*
D03*
X4546000Y550000D02*
D03*
X3215938D02*
D03*
X2715938D02*
D03*
X2215938D02*
D03*
X5036500Y3781500D02*
D03*
X4286500D02*
D03*
X2965938Y550000D02*
D03*
X2465938D02*
D03*
X6166000Y540500D02*
D03*
X5916000D02*
D03*
X4796000Y550000D02*
D03*
X4296000D02*
D03*
X4786500Y3781500D02*
D03*
X4536500D02*
D03*
D41*
X7898344Y2240767D02*
D03*
X7901495Y1166215D02*
D03*
X7898344Y3313500D02*
D03*
D43*
X576500Y4197000D02*
D03*
X4661500Y5058012D02*
D03*
D44*
X5666000Y540500D02*
D03*
X5286500Y3781500D02*
D03*
X1965938Y550000D02*
D03*
X4046000D02*
D03*
D48*
X1805938Y350000D02*
D03*
X5446500Y3981500D02*
D03*
D49*
X576500Y4447000D02*
D03*
D50*
X4911500Y5058012D02*
D03*
D66*
X1453696Y2857151D02*
D03*
Y2057151D02*
D03*
D67*
X8218000Y444000D02*
D03*
Y5118000D02*
D03*
X431521Y5115359D02*
D03*
X432000Y444000D02*
D03*
D68*
X2553696Y2227151D02*
D03*
Y2777151D02*
D03*
Y2667151D02*
D03*
Y2557151D02*
D03*
Y2447151D02*
D03*
Y2337151D02*
D03*
Y2117151D02*
D03*
Y2007151D02*
D03*
Y1897151D02*
D03*
D69*
X2448696Y3237151D02*
D03*
D70*
X1493696Y3327151D02*
D03*
Y1777151D02*
D03*
D71*
X2423696D02*
D03*
%TF.MD5,cdbc73b9ac1becdf4527698bce975b64*%
M02*
